<?xml version="1.0" encoding="UTF-8" standalone="no"?>
<!-- Created with Inkscape (http://www.inkscape.org/) -->

<svg
   xmlns:dc="http://purl.org/dc/elements/1.1/"
   xmlns:cc="http://creativecommons.org/ns#"
   xmlns:rdf="http://www.w3.org/1999/02/22-rdf-syntax-ns#"
   xmlns:svg="http://www.w3.org/2000/svg"
   xmlns="http://www.w3.org/2000/svg"
   xmlns:sodipodi="http://sodipodi.sourceforge.net/DTD/sodipodi-0.dtd"
   xmlns:inkscape="http://www.inkscape.org/namespaces/inkscape"
   width="723.78571"
   height="569.90002"
   id="svg2"
   version="1.1"
   inkscape:version="0.48.4 r9939"
   sodipodi:docname="chain_selection4.svg"
   inkscape:export-filename="/home/vub/chain_selection3.png"
   inkscape:export-xdpi="90"
   inkscape:export-ydpi="90">
  <defs
     id="defs4" />
  <sodipodi:namedview
     id="base"
     pagecolor="#ffffff"
     bordercolor="#666666"
     borderopacity="1.0"
     inkscape:pageopacity="0.0"
     inkscape:pageshadow="2"
     inkscape:zoom="0.7"
     inkscape:cx="711.57143"
     inkscape:cy="404.91575"
     inkscape:document-units="px"
     inkscape:current-layer="layer1"
     showgrid="false"
     fit-margin-top="0"
     fit-margin-left="0"
     fit-margin-right="0"
     fit-margin-bottom="0"
     inkscape:window-width="1600"
     inkscape:window-height="824"
     inkscape:window-x="0"
     inkscape:window-y="24"
     inkscape:window-maximized="1" />
  <metadata
     id="metadata7">
    <rdf:RDF>
      <cc:Work
         rdf:about="">
        <dc:format>image/svg+xml</dc:format>
        <dc:type
           rdf:resource="http://purl.org/dc/dcmitype/StillImage" />
        <dc:title />
      </cc:Work>
    </rdf:RDF>
  </metadata>
  <g
     inkscape:label="Layer 1"
     inkscape:groupmode="layer"
     id="layer1"
     transform="translate(336.57144,-440.9895)">
    <path
       sodipodi:type="arc"
       style="fill:none;stroke:#000000;stroke-width:3;stroke-opacity:1"
       id="path2985-5"
       sodipodi:cx="214.28572"
       sodipodi:cy="394.09448"
       sodipodi:rx="42.857143"
       sodipodi:ry="42.857143"
       d="m 257.14286,394.09448 c 0,23.66935 -19.18779,42.85715 -42.85714,42.85715 -23.66935,0 -42.85714,-19.1878 -42.85714,-42.85715 0,-23.66934 19.18779,-42.85714 42.85714,-42.85714 23.66935,0 42.85714,19.1878 42.85714,42.85714 z"
       transform="translate(128.57143,206.55341)" />
    <path
       sodipodi:type="arc"
       style="fill:none;stroke:#000000;stroke-width:3;stroke-opacity:1"
       id="path2985-5-7-3-3"
       sodipodi:cx="214.28572"
       sodipodi:cy="394.09448"
       sodipodi:rx="42.857143"
       sodipodi:ry="42.857143"
       d="m 257.14286,394.09448 c 0,23.66935 -19.18779,42.85715 -42.85714,42.85715 -23.66935,0 -42.85714,-19.1878 -42.85714,-42.85715 0,-23.66934 19.18779,-42.85714 42.85714,-42.85714 23.66935,0 42.85714,19.1878 42.85714,42.85714 z"
       transform="matrix(0.56926051,-0.82215721,-0.82215721,-0.56926051,182.05897,885.92724)" />
    <path
       sodipodi:type="arc"
       style="fill:none;stroke:#000000;stroke-width:3;stroke-opacity:1"
       id="path2985-5-29-5-4"
       sodipodi:cx="214.28572"
       sodipodi:cy="394.09448"
       sodipodi:rx="42.857143"
       sodipodi:ry="42.857143"
       d="m 257.14286,394.09448 c 0,23.66935 -19.18779,42.85715 -42.85714,42.85715 -23.66935,0 -42.85714,-19.1878 -42.85714,-42.85715 0,-23.66934 19.18779,-42.85714 42.85714,-42.85714 23.66935,0 42.85714,19.1878 42.85714,42.85714 z"
       transform="translate(-235.71429,329.69627)" />
    <path
       style="fill:none;stroke:#000000;stroke-width:3;stroke-linecap:butt;stroke-linejoin:miter;stroke-opacity:1"
       d="m -155.71429,722.6479 91.42859,0"
       id="path3773-3-2-9"
       inkscape:connector-curvature="0" />
    <path
       sodipodi:type="arc"
       style="fill:none;stroke:#000000;stroke-width:3;stroke-opacity:1"
       id="path2985-0"
       sodipodi:cx="214.28572"
       sodipodi:cy="394.09448"
       sodipodi:rx="42.857143"
       sodipodi:ry="42.857143"
       d="m 257.14286,394.09448 c 0,23.66935 -19.18779,42.85715 -42.85714,42.85715 -23.66935,0 -42.85714,-19.1878 -42.85714,-42.85715 0,-23.66934 19.18779,-42.85714 42.85714,-42.85714 23.66935,0 42.85714,19.1878 42.85714,42.85714 z"
       transform="translate(-413.64287,329.95902)" />
    <path
       style="fill:none;stroke:#000000;stroke-width:3;stroke-linecap:butt;stroke-linejoin:miter;stroke-opacity:1"
       d="m -335.07144,722.05351 91.42858,0"
       id="path3773-88-4"
       inkscape:connector-curvature="0" />
    <path
       sodipodi:type="arc"
       style="fill:none;stroke:#000000;stroke-width:3;stroke-opacity:1"
       id="path2985-5-7-3-3-1"
       sodipodi:cx="214.28572"
       sodipodi:cy="394.09448"
       sodipodi:rx="42.857143"
       sodipodi:ry="42.857143"
       d="m 257.14286,394.09448 c 0,23.66935 -19.18779,42.85715 -42.85714,42.85715 -23.66935,0 -42.85714,-19.1878 -42.85714,-42.85715 0,-23.66934 19.18779,-42.85714 42.85714,-42.85714 23.66935,0 42.85714,19.1878 42.85714,42.85714 z"
       transform="matrix(0.56926051,0.82215721,-0.82215721,0.56926051,182.03044,566.00954)" />
    <path
       style="fill:none;stroke:#000000;stroke-width:3.17335582;stroke-linecap:butt;stroke-linejoin:miter;stroke-opacity:1"
       d="m -178.24764,759.00871 127.548504,174.9562"
       id="path3773-2-6-0-5"
       inkscape:connector-curvature="0" />
    <path
       style="fill:none;stroke:#000000;stroke-width:3.11318207;stroke-linecap:butt;stroke-linejoin:miter;stroke-opacity:1"
       d="M -49.7671,514.83103 -174.51864,686.99026"
       id="path3773-2-6-0-5-1"
       inkscape:connector-curvature="0" />
    <path
       sodipodi:type="arc"
       style="fill:none;stroke:#000000;stroke-width:3;stroke-opacity:1"
       id="path2985-5-7-3-3-3"
       sodipodi:cx="214.28572"
       sodipodi:cy="394.09448"
       sodipodi:rx="42.857143"
       sodipodi:ry="42.857143"
       d="m 257.14286,394.09448 c 0,23.66935 -19.18779,42.85715 -42.85714,42.85715 -23.66935,0 -42.85714,-19.1878 -42.85714,-42.85715 0,-23.66934 19.18779,-42.85714 42.85714,-42.85714 23.66935,0 42.85714,19.1878 42.85714,42.85714 z"
       transform="matrix(0.56926051,-0.82215721,-0.82215721,-0.56926051,180.88035,1005.5725)" />
    <path
       sodipodi:type="arc"
       style="fill:none;stroke:#000000;stroke-width:3;stroke-opacity:1"
       id="path2985-5-7-3-3-9"
       sodipodi:cx="214.28572"
       sodipodi:cy="394.09448"
       sodipodi:rx="42.857143"
       sodipodi:ry="42.857143"
       d="m 257.14286,394.09448 c 0,23.66935 -19.18779,42.85715 -42.85714,42.85715 -23.66935,0 -42.85714,-19.1878 -42.85714,-42.85715 0,-23.66934 19.18779,-42.85714 42.85714,-42.85714 23.66935,0 42.85714,19.1878 42.85714,42.85714 z"
       transform="matrix(0.56926051,-0.82215721,-0.82215721,-0.56926051,180.88035,1245.5725)" />
    <path
       style="fill:none;stroke:#000000;stroke-width:3;stroke-linecap:butt;stroke-linejoin:miter;stroke-opacity:1"
       d="M -56.446654,629.22487 -159.55337,706.88213"
       id="path3773-2-6-0-5-1-1"
       inkscape:connector-curvature="0" />
    <path
       style="fill:none;stroke:#000000;stroke-width:3;stroke-linecap:butt;stroke-linejoin:miter;stroke-opacity:1"
       d="M -60.732366,821.88213 -163.83909,744.22487"
       id="path3773-2-6-0-5-1-1-4"
       inkscape:connector-curvature="0" />
    <path
       style="fill:none;stroke:#000000;stroke-width:3;stroke-linecap:butt;stroke-linejoin:miter;stroke-opacity:1"
       d="m 25.142844,485.33921 91.428566,0"
       id="path3773-28"
       inkscape:connector-curvature="0" />
    <path
       style="fill:none;stroke:#000000;stroke-width:3;stroke-linecap:butt;stroke-linejoin:miter;stroke-opacity:1"
       d="m 21.999985,600.48206 91.428565,0"
       id="path3773-28-6"
       inkscape:connector-curvature="0" />
    <path
       style="fill:none;stroke:#000000;stroke-width:3;stroke-linecap:butt;stroke-linejoin:miter;stroke-opacity:1"
       d="m 23.571416,720.0535 91.428574,0"
       id="path3773-28-2"
       inkscape:connector-curvature="0" />
    <path
       style="fill:none;stroke:#000000;stroke-width:3;stroke-linecap:butt;stroke-linejoin:miter;stroke-opacity:1"
       d="m 20.428556,835.19635 91.428574,0"
       id="path3773-28-6-4"
       inkscape:connector-curvature="0" />
    <path
       style="fill:none;stroke:#000000;stroke-width:3;stroke-linecap:butt;stroke-linejoin:miter;stroke-opacity:1"
       d="m 23.42856,960.48206 91.42857,0"
       id="path3773-28-6-9"
       inkscape:connector-curvature="0" />
    <path
       style="fill:none;stroke:#000000;stroke-width:3;stroke-linecap:butt;stroke-linejoin:miter;stroke-opacity:1"
       d="m 193.68904,510.37384 112.3362,68.21647"
       id="path3773-7-7"
       inkscape:connector-curvature="0" />
    <path
       style="fill:none;stroke:#000000;stroke-width:3;stroke-linecap:butt;stroke-linejoin:miter;stroke-opacity:1"
       d="M 191.68553,698.89418 310.88586,625.78426"
       id="path3773-7-7-2"
       inkscape:connector-curvature="0" />
    <path
       style="fill:none;stroke:#000000;stroke-width:3.05230427;stroke-linecap:butt;stroke-linejoin:miter;stroke-opacity:1"
       d="M 186.62401,812.52713 314.51883,632.15129"
       id="path3773-7-7-2-4"
       inkscape:connector-curvature="0" />
    <path
       style="fill:none;stroke:#000000;stroke-width:3.02883434;stroke-linecap:butt;stroke-linejoin:miter;stroke-opacity:1"
       d="M 189.17535,934.26146 321.96749,637.55978"
       id="path3773-7-7-2-4-7"
       inkscape:connector-curvature="0" />
    <path
       style="fill:none;stroke:#000000;stroke-width:2.91650844;stroke-linecap:butt;stroke-linejoin:miter;stroke-opacity:1"
       d="m 203.50509,603.0535 95.56124,0"
       id="path3773-28-6-3"
       inkscape:connector-curvature="0" />
    <path
       sodipodi:type="arc"
       style="fill:none;stroke:#000000;stroke-width:3;stroke-opacity:1"
       id="path2985-5-7-3-3-93"
       sodipodi:cx="214.28572"
       sodipodi:cy="394.09448"
       sodipodi:rx="42.857143"
       sodipodi:ry="42.857143"
       d="m 257.14286,394.09448 c 0,23.66935 -19.18779,42.85715 -42.85714,42.85715 -23.66935,0 -42.85714,-19.1878 -42.85714,-42.85715 0,-23.66934 19.18779,-42.85714 42.85714,-42.85714 23.66935,0 42.85714,19.1878 42.85714,42.85714 z"
       transform="matrix(0.56926051,-0.82215721,-0.82215721,-0.56926051,361.89629,885.86949)" />
    <path
       sodipodi:type="arc"
       style="fill:none;stroke:#000000;stroke-width:3;stroke-opacity:1"
       id="path2985-5-29-5-4-5"
       sodipodi:cx="214.28572"
       sodipodi:cy="394.09448"
       sodipodi:rx="42.857143"
       sodipodi:ry="42.857143"
       d="m 257.14286,394.09448 c 0,23.66935 -19.18779,42.85715 -42.85714,42.85715 -23.66935,0 -42.85714,-19.1878 -42.85714,-42.85715 0,-23.66934 19.18779,-42.85714 42.85714,-42.85714 23.66935,0 42.85714,19.1878 42.85714,42.85714 z"
       transform="translate(-55.87697,329.63852)" />
    <path
       sodipodi:type="arc"
       style="fill:none;stroke:#000000;stroke-width:3;stroke-opacity:1"
       id="path2985-5-7-3-3-1-9"
       sodipodi:cx="214.28572"
       sodipodi:cy="394.09448"
       sodipodi:rx="42.857143"
       sodipodi:ry="42.857143"
       d="m 257.14286,394.09448 c 0,23.66935 -19.18779,42.85715 -42.85714,42.85715 -23.66935,0 -42.85714,-19.1878 -42.85714,-42.85715 0,-23.66934 19.18779,-42.85714 42.85714,-42.85714 23.66935,0 42.85714,19.1878 42.85714,42.85714 z"
       transform="matrix(0.56926051,0.82215721,-0.82215721,0.56926051,361.86776,565.95179)" />
    <path
       sodipodi:type="arc"
       style="fill:none;stroke:#000000;stroke-width:3;stroke-opacity:1"
       id="path2985-5-7-3-3-3-5"
       sodipodi:cx="214.28572"
       sodipodi:cy="394.09448"
       sodipodi:rx="42.857143"
       sodipodi:ry="42.857143"
       d="m 257.14286,394.09448 c 0,23.66935 -19.18779,42.85715 -42.85714,42.85715 -23.66935,0 -42.85714,-19.1878 -42.85714,-42.85715 0,-23.66934 19.18779,-42.85714 42.85714,-42.85714 23.66935,0 42.85714,19.1878 42.85714,42.85714 z"
       transform="matrix(0.56926051,-0.82215721,-0.82215721,-0.56926051,360.71767,1005.5148)" />
    <path
       sodipodi:type="arc"
       style="fill:none;stroke:#000000;stroke-width:3;stroke-opacity:1"
       id="path2985-5-7-3-3-9-3"
       sodipodi:cx="214.28572"
       sodipodi:cy="394.09448"
       sodipodi:rx="42.857143"
       sodipodi:ry="42.857143"
       d="m 257.14286,394.09448 c 0,23.66935 -19.18779,42.85715 -42.85714,42.85715 -23.66935,0 -42.85714,-19.1878 -42.85714,-42.85715 0,-23.66934 19.18779,-42.85714 42.85714,-42.85714 23.66935,0 42.85714,19.1878 42.85714,42.85714 z"
       transform="matrix(0.56926051,-0.82215721,-0.82215721,-0.56926051,360.71767,1245.5148)" />
    <g
       id="g5480"
       transform="matrix(1,0,0,-1,-480.85714,1527.5355)">
      <path
         transform="translate(608.70106,281.56776)"
         d="m 257.14286,394.09448 c 0,23.66935 -19.18779,42.85715 -42.85714,42.85715 -23.66935,0 -42.85714,-19.1878 -42.85714,-42.85715 0,-23.66934 19.18779,-42.85714 42.85714,-42.85714 23.66935,0 42.85714,19.1878 42.85714,42.85714 z"
         sodipodi:ry="42.857143"
         sodipodi:rx="42.857143"
         sodipodi:cy="394.09448"
         sodipodi:cx="214.28572"
         id="path2985-5-7"
         style="fill:none;stroke:#000000;stroke-width:3;stroke-opacity:1"
         sodipodi:type="arc" />
      <path
         inkscape:connector-curvature="0"
         id="path3773-7-7-36"
         d="m 673.81867,585.38819 112.3362,68.21647"
         style="fill:none;stroke:#000000;stroke-width:3;stroke-linecap:butt;stroke-linejoin:miter;stroke-opacity:1" />
      <path
         inkscape:connector-curvature="0"
         id="path3773-7-7-2-1"
         d="M 671.81516,773.90853 791.01549,700.79861"
         style="fill:none;stroke:#000000;stroke-width:3;stroke-linecap:butt;stroke-linejoin:miter;stroke-opacity:1" />
      <path
         inkscape:connector-curvature="0"
         id="path3773-7-7-2-4-83"
         d="M 666.75364,887.54148 794.64846,707.16564"
         style="fill:none;stroke:#000000;stroke-width:3.05230427;stroke-linecap:butt;stroke-linejoin:miter;stroke-opacity:1" />
      <path
         inkscape:connector-curvature="0"
         id="path3773-7-7-2-4-7-8"
         d="M 669.30498,1009.2758 802.09712,712.57413"
         style="fill:none;stroke:#000000;stroke-width:3.02883434;stroke-linecap:butt;stroke-linejoin:miter;stroke-opacity:1" />
      <path
         inkscape:connector-curvature="0"
         id="path3773-28-6-3-8"
         d="m 683.63472,678.06785 95.56124,0"
         style="fill:none;stroke:#000000;stroke-width:2.91650844;stroke-linecap:butt;stroke-linejoin:miter;stroke-opacity:1" />
    </g>
  </g>
</svg>
