<?xml version="1.0" encoding="UTF-8" standalone="no"?>
<!-- Created with Inkscape (http://www.inkscape.org/) -->

<svg
   xmlns:dc="http://purl.org/dc/elements/1.1/"
   xmlns:cc="http://creativecommons.org/ns#"
   xmlns:rdf="http://www.w3.org/1999/02/22-rdf-syntax-ns#"
   xmlns:svg="http://www.w3.org/2000/svg"
   xmlns="http://www.w3.org/2000/svg"
   xmlns:sodipodi="http://sodipodi.sourceforge.net/DTD/sodipodi-0.dtd"
   xmlns:inkscape="http://www.inkscape.org/namespaces/inkscape"
   width="653.35297"
   height="738.75854"
   id="svg2"
   version="1.1"
   inkscape:version="0.48.4 r9939"
   sodipodi:docname="hubspoke.svg"
   inkscape:export-filename="/home/vub/hubspoke.png"
   inkscape:export-xdpi="90"
   inkscape:export-ydpi="90">
  <defs
     id="defs4" />
  <sodipodi:namedview
     id="base"
     pagecolor="#ffffff"
     bordercolor="#666666"
     borderopacity="1.0"
     inkscape:pageopacity="0.0"
     inkscape:pageshadow="2"
     inkscape:zoom="0.35"
     inkscape:cx="305.94062"
     inkscape:cy="211.68525"
     inkscape:document-units="px"
     inkscape:current-layer="layer1"
     showgrid="false"
     fit-margin-top="0"
     fit-margin-left="0"
     fit-margin-right="0"
     fit-margin-bottom="0"
     inkscape:window-width="1600"
     inkscape:window-height="824"
     inkscape:window-x="0"
     inkscape:window-y="24"
     inkscape:window-maximized="1" />
  <metadata
     id="metadata7">
    <rdf:RDF>
      <cc:Work
         rdf:about="">
        <dc:format>image/svg+xml</dc:format>
        <dc:type
           rdf:resource="http://purl.org/dc/dcmitype/StillImage" />
        <dc:title></dc:title>
      </cc:Work>
    </rdf:RDF>
  </metadata>
  <g
     inkscape:label="Layer 1"
     inkscape:groupmode="layer"
     id="layer1"
     transform="translate(-69.059379,-5.288886)">
    <path
       style="fill:none;stroke:#000000;stroke-width:3;stroke-linecap:butt;stroke-linejoin:miter;stroke-opacity:1"
       d="M 220.27439,75.013809 121.76723,234.25525"
       id="path3044-8"
       inkscape:connector-curvature="0" />
    <path
       transform="matrix(0.4683942,0.47499532,-0.47499532,0.4683942,622.98032,-121.40521)"
       sodipodi:type="arc"
       style="fill:none;stroke:#000000;stroke-width:5.99616146;stroke-linecap:butt;stroke-linejoin:miter;stroke-opacity:1"
       id="path2985-0-13-1-6"
       sodipodi:cx="337.14285"
       sodipodi:cy="483.79074"
       sodipodi:rx="54.285713"
       sodipodi:ry="54.285713"
       d="m 391.42857,483.79074 c 0,29.98117 -24.30455,54.28571 -54.28572,54.28571 -29.98117,0 -54.28571,-24.30454 -54.28571,-54.28571 0,-29.98117 24.30454,-54.28571 54.28571,-54.28571 29.98117,0 54.28572,24.30454 54.28572,54.28571 z" />
    <path
       transform="matrix(0.4683942,0.47499532,-0.47499532,0.4683942,180.95495,319.08773)"
       sodipodi:type="arc"
       style="fill:none;stroke:#000000;stroke-width:5.99616146;stroke-linecap:butt;stroke-linejoin:miter;stroke-opacity:1"
       id="path2985-0-13-7-4"
       sodipodi:cx="337.14285"
       sodipodi:cy="483.79074"
       sodipodi:rx="54.285713"
       sodipodi:ry="54.285713"
       d="m 391.42857,483.79074 c 0,29.98117 -24.30455,54.28571 -54.28572,54.28571 -29.98117,0 -54.28571,-24.30454 -54.28571,-54.28571 0,-29.98117 24.30454,-54.28571 54.28571,-54.28571 29.98117,0 54.28572,24.30454 54.28572,54.28571 z" />
    <path
       transform="matrix(0.4683942,-0.47499532,-0.47499532,-0.4683942,621.18098,1090.7833)"
       sodipodi:type="arc"
       style="fill:none;stroke:#000000;stroke-width:5.99616146;stroke-linecap:butt;stroke-linejoin:miter;stroke-opacity:1"
       id="path2985-0-13-1-6-8"
       sodipodi:cx="337.14285"
       sodipodi:cy="483.79074"
       sodipodi:rx="54.285713"
       sodipodi:ry="54.285713"
       d="m 391.42857,483.79074 c 0,29.98117 -24.30455,54.28571 -54.28572,54.28571 -29.98117,0 -54.28571,-24.30454 -54.28571,-54.28571 0,-29.98117 24.30454,-54.28571 54.28571,-54.28571 29.98117,0 54.28572,24.30454 54.28572,54.28571 z" />
    <path
       transform="matrix(0.4683942,-0.47499532,-0.47499532,-0.4683942,179.15561,650.2904)"
       sodipodi:type="arc"
       style="fill:none;stroke:#000000;stroke-width:5.99616146;stroke-linecap:butt;stroke-linejoin:miter;stroke-opacity:1"
       id="path2985-0-13-7-4-5"
       sodipodi:cx="337.14285"
       sodipodi:cy="483.79074"
       sodipodi:rx="54.285713"
       sodipodi:ry="54.285713"
       d="m 391.42857,483.79074 c 0,29.98117 -24.30455,54.28571 -54.28572,54.28571 -29.98117,0 -54.28571,-24.30454 -54.28571,-54.28571 0,-29.98117 24.30454,-54.28571 54.28571,-54.28571 29.98117,0 54.28572,24.30454 54.28572,54.28571 z" />
    <path
       style="fill:none;stroke:#000000;stroke-width:4;stroke-linecap:butt;stroke-linejoin:miter;stroke-opacity:1"
       d="m 109.97584,302.62244 0.0496,365.76393"
       id="path3044-4-0"
       inkscape:connector-curvature="0" />
    <path
       style="fill:none;stroke:#000000;stroke-width:4;stroke-linecap:butt;stroke-linejoin:miter;stroke-opacity:1"
       d="m 511.73975,705.4796 -365.76392,0.0496"
       id="path3044-4-0-6"
       inkscape:connector-curvature="0" />
    <path
       style="fill:none;stroke:#000000;stroke-width:3;stroke-linecap:butt;stroke-linejoin:miter;stroke-opacity:1"
       d="M 672.39708,77.312251 573.88992,236.55369"
       id="path3044-8-6"
       inkscape:connector-curvature="0" />
    <path
       style="fill:none;stroke:#000000;stroke-width:4;stroke-linecap:butt;stroke-linejoin:miter;stroke-opacity:1"
       d="M 672.39708,517.31226 573.88992,676.5537"
       id="path3044-8-6-9"
       inkscape:connector-curvature="0" />
    <path
       style="fill:none;stroke:#000000;stroke-width:4;stroke-linecap:butt;stroke-linejoin:miter;stroke-opacity:1"
       d="m 685.6476,81.438413 0.0496,365.763927"
       id="path3044-4-1"
       inkscape:connector-curvature="0" />
    <path
       transform="matrix(0.4683942,0.47499532,-0.47499532,0.4683942,756.08129,-341.44702)"
       sodipodi:type="arc"
       style="fill:none;stroke:#000000;stroke-width:5.99616146;stroke-linecap:butt;stroke-linejoin:miter;stroke-opacity:1"
       id="path2985-0-13-1-6-1"
       sodipodi:cx="337.14285"
       sodipodi:cy="483.79074"
       sodipodi:rx="54.285713"
       sodipodi:ry="54.285713"
       d="m 391.42857,483.79074 c 0,29.98117 -24.30455,54.28571 -54.28572,54.28571 -29.98117,0 -54.28571,-24.30454 -54.28571,-54.28571 0,-29.98117 24.30454,-54.28571 54.28571,-54.28571 29.98117,0 54.28572,24.30454 54.28572,54.28571 z" />
    <path
       transform="matrix(0.4683942,0.47499532,-0.47499532,0.4683942,314.05592,99.045923)"
       sodipodi:type="arc"
       style="fill:none;stroke:#000000;stroke-width:5.99616146;stroke-linecap:butt;stroke-linejoin:miter;stroke-opacity:1"
       id="path2985-0-13-7-4-8"
       sodipodi:cx="337.14285"
       sodipodi:cy="483.79074"
       sodipodi:rx="54.285713"
       sodipodi:ry="54.285713"
       d="m 391.42857,483.79074 c 0,29.98117 -24.30455,54.28571 -54.28572,54.28571 -29.98117,0 -54.28571,-24.30454 -54.28571,-54.28571 0,-29.98117 24.30454,-54.28571 54.28571,-54.28571 29.98117,0 54.28572,24.30454 54.28572,54.28571 z" />
    <path
       transform="matrix(0.4683942,-0.47499532,-0.47499532,-0.4683942,754.28195,870.74149)"
       sodipodi:type="arc"
       style="fill:none;stroke:#000000;stroke-width:5.99616146;stroke-linecap:butt;stroke-linejoin:miter;stroke-opacity:1"
       id="path2985-0-13-1-6-8-5"
       sodipodi:cx="337.14285"
       sodipodi:cy="483.79074"
       sodipodi:rx="54.285713"
       sodipodi:ry="54.285713"
       d="m 391.42857,483.79074 c 0,29.98117 -24.30455,54.28571 -54.28572,54.28571 -29.98117,0 -54.28571,-24.30454 -54.28571,-54.28571 0,-29.98117 24.30454,-54.28571 54.28571,-54.28571 29.98117,0 54.28572,24.30454 54.28572,54.28571 z" />
    <path
       transform="matrix(0.4683942,-0.47499532,-0.47499532,-0.4683942,312.25658,430.24859)"
       sodipodi:type="arc"
       style="fill:none;stroke:#000000;stroke-width:5.99616146;stroke-linecap:butt;stroke-linejoin:miter;stroke-opacity:1"
       id="path2985-0-13-7-4-5-0"
       sodipodi:cx="337.14285"
       sodipodi:cy="483.79074"
       sodipodi:rx="54.285713"
       sodipodi:ry="54.285713"
       d="m 391.42857,483.79074 c 0,29.98117 -24.30455,54.28571 -54.28572,54.28571 -29.98117,0 -54.28571,-24.30454 -54.28571,-54.28571 0,-29.98117 24.30454,-54.28571 54.28571,-54.28571 29.98117,0 54.28572,24.30454 54.28572,54.28571 z" />
    <path
       style="fill:none;stroke:#000000;stroke-width:4;stroke-linecap:butt;stroke-linejoin:miter;stroke-opacity:1"
       d="m 243.07682,82.580633 0.0496,365.763927"
       id="path3044-4-0-57"
       inkscape:connector-curvature="0" />
    <path
       style="fill:none;stroke:#000000;stroke-width:4;stroke-linecap:butt;stroke-linejoin:miter;stroke-opacity:1"
       d="m 645.69806,42.580453 -365.76399,0.05"
       id="path3044-4-0-5-3"
       inkscape:connector-curvature="0" />
    <path
       style="fill:none;stroke:#000000;stroke-width:4;stroke-linecap:butt;stroke-linejoin:miter;stroke-opacity:1"
       d="m 644.84072,485.43779 -365.76391,0.0496"
       id="path3044-4-0-6-5"
       inkscape:connector-curvature="0" />
    <path
       style="fill:none;stroke:#000000;stroke-width:3;stroke-linecap:butt;stroke-linejoin:miter;stroke-opacity:1"
       d="M 220.96851,517.31225 122.46135,676.55369"
       id="path3044-8-6-7"
       inkscape:connector-curvature="0" />
    <path
       style="fill:#e6e6e6;stroke:#b3b3b3;stroke-width:2;stroke-linecap:butt;stroke-linejoin:miter;stroke-opacity:1"
       d="M 271.7065,462.65568 520.29478,285.49598"
       id="path3565"
       inkscape:connector-curvature="0" />
    <path
       style="fill:none;stroke:#cccccc;stroke-width:2;stroke-linecap:butt;stroke-linejoin:miter;stroke-opacity:1"
       d="M 160,145.14158 665.71429,339.42729"
       id="path3571"
       inkscape:connector-curvature="0"
       transform="translate(-19.713644,131.7914)" />
    <path
       style="fill:none;stroke:#cccccc;stroke-width:2;stroke-linecap:butt;stroke-linejoin:miter;stroke-opacity:1"
       d="M 151.42857,547.99872 680,-57.715567"
       id="path3569"
       inkscape:connector-curvature="0"
       transform="translate(-19.713644,131.7914)" />
    <path
       style="fill:none;stroke:#000000;stroke-width:4;stroke-linecap:butt;stroke-linejoin:miter;stroke-opacity:1"
       d="m 552.54663,301.48022 0.0496,365.76393"
       id="path3044-4"
       inkscape:connector-curvature="0" />
    <path
       style="fill:none;stroke:#b3b3b3;stroke-width:2;stroke-linecap:butt;stroke-linejoin:miter;stroke-opacity:1"
       d="M 280,-57.715567 551.42857,536.57015"
       id="path3561"
       inkscape:connector-curvature="0"
       transform="translate(-19.713644,131.7914)" />
    <path
       style="fill:none;stroke:#000000;stroke-width:4;stroke-linecap:butt;stroke-linejoin:miter;stroke-opacity:1"
       d="m 512.59709,262.62226 -365.764,0.05"
       id="path3044-4-0-5"
       inkscape:connector-curvature="0" />
    <path
       sodipodi:type="arc"
       style="fill:#ffffff;stroke:#999999;stroke-width:3;stroke-linecap:butt;stroke-linejoin:miter;stroke-opacity:1"
       id="path2985"
       sodipodi:cx="337.14285"
       sodipodi:cy="483.79074"
       sodipodi:rx="54.285713"
       sodipodi:ry="54.285713"
       d="m 391.42857,483.79074 c 0,29.98117 -24.30455,54.28571 -54.28572,54.28571 -29.98117,0 -54.28571,-24.30454 -54.28571,-54.28571 0,-29.98117 24.30454,-54.28571 54.28571,-54.28571 29.98117,0 54.28572,24.30454 54.28572,54.28571 z"
       transform="translate(60,-108.57143)" />
  </g>
</svg>
