<?xml version="1.0" encoding="UTF-8" standalone="no"?>
<!-- Created with Inkscape (http://www.inkscape.org/) -->

<svg
   xmlns:dc="http://purl.org/dc/elements/1.1/"
   xmlns:cc="http://creativecommons.org/ns#"
   xmlns:rdf="http://www.w3.org/1999/02/22-rdf-syntax-ns#"
   xmlns:svg="http://www.w3.org/2000/svg"
   xmlns="http://www.w3.org/2000/svg"
   xmlns:sodipodi="http://sodipodi.sourceforge.net/DTD/sodipodi-0.dtd"
   xmlns:inkscape="http://www.inkscape.org/namespaces/inkscape"
   width="741.67932"
   height="484.1557"
   id="svg2"
   version="1.1"
   inkscape:version="0.48.4 r9939"
   sodipodi:docname="futarchy.svg"
   inkscape:export-filename="/home/vub/Work/ethereum/docs/diagrams/futarchy.png"
   inkscape:export-xdpi="90"
   inkscape:export-ydpi="90">
  <defs
     id="defs4" />
  <sodipodi:namedview
     id="base"
     pagecolor="#ffffff"
     bordercolor="#666666"
     borderopacity="1.0"
     inkscape:pageopacity="0.0"
     inkscape:pageshadow="2"
     inkscape:zoom="0.98994949"
     inkscape:cx="211.76382"
     inkscape:cy="311.5471"
     inkscape:document-units="px"
     inkscape:current-layer="layer1"
     showgrid="false"
     fit-margin-top="0"
     fit-margin-left="0"
     fit-margin-right="0"
     fit-margin-bottom="0"
     inkscape:window-width="1600"
     inkscape:window-height="851"
     inkscape:window-x="0"
     inkscape:window-y="25"
     inkscape:window-maximized="1" />
  <metadata
     id="metadata7">
    <rdf:RDF>
      <cc:Work
         rdf:about="">
        <dc:format>image/svg+xml</dc:format>
        <dc:type
           rdf:resource="http://purl.org/dc/dcmitype/StillImage" />
        <dc:title></dc:title>
      </cc:Work>
    </rdf:RDF>
  </metadata>
  <g
     inkscape:label="Layer 1"
     inkscape:groupmode="layer"
     id="layer1"
     transform="translate(-168.95047,-419.77792)">
    <rect
       style="fill:#ffffff;fill-opacity:1;stroke:#800080;stroke-width:1.48258686;stroke-miterlimit:4;stroke-opacity:1;stroke-dasharray:none"
       id="rect2985"
       width="380.51743"
       height="116.2317"
       x="354.02701"
       y="786.96063" />
    <flowRoot
       xml:space="preserve"
       id="flowRoot2987"
       style="font-size:15px;font-style:normal;font-weight:normal;line-height:125%;letter-spacing:0px;word-spacing:0px;fill:#000000;fill-opacity:1;stroke:none;font-family:Sans"
       transform="translate(-4,380.2677)"><flowRegion
         id="flowRegion2989"><rect
           id="rect2991"
           width="357.14285"
           height="124.28571"
           x="368.57144"
           y="439.80878" /></flowRegion><flowPara
         id="flowPara2993"
         style="font-size:35px;text-align:center;text-anchor:middle">Master Contract</flowPara></flowRoot>    <rect
       style="fill:#ffffff;fill-opacity:1;stroke:#800080;stroke-width:2.19737339;stroke-miterlimit:4;stroke-opacity:1;stroke-dasharray:none"
       id="rect2995"
       width="158.37405"
       height="136.9455"
       x="202.03488"
       y="552.46094" />
    <flowRoot
       xml:space="preserve"
       id="flowRoot2987-7"
       style="font-size:15px;font-style:normal;font-weight:normal;line-height:125%;letter-spacing:0px;word-spacing:0px;fill:#000000;fill-opacity:1;stroke:none;font-family:Sans"
       transform="translate(-157.92328,118.97536)"><flowRegion
         id="flowRegion2989-4"><rect
           id="rect2991-2"
           width="357.14285"
           height="124.28571"
           x="368.57144"
           y="439.80878" /></flowRegion><flowPara
         id="flowPara2993-4"
         style="font-size:20px;text-align:start;text-anchor:start">Proposal 1:</flowPara><flowPara
         style="font-size:14px;text-align:start;text-anchor:start"
         id="flowPara3177">49d632e8207bf2d7</flowPara></flowRoot>    <path
       style="fill:none;stroke:#00ff00;stroke-width:1px;stroke-linecap:butt;stroke-linejoin:miter;stroke-opacity:1"
       d="m 270.50763,688.6479 c 0,-4.28572 0,-8.57143 0,-12.85715 0,-1.42857 0.45175,-2.93045 0,-4.28571 -0.21296,-0.63888 -1.1274,-0.82623 -1.42857,-1.42857 -0.21296,-0.42592 0.42592,-1.21561 0,-1.42857 -0.85184,-0.42592 -2.18371,0.67343 -2.85714,0 -0.67344,-0.67344 0,-1.90477 0,-2.85715 0,-0.47619 0.33671,-1.09185 0,-1.42857 -0.33672,-0.33672 -1.00266,0.21296 -1.42858,0 -0.60233,-0.30117 -0.95238,-0.95238 -1.42857,-1.42857 -1.42857,-1.42857 -3.07353,-2.66947 -4.28571,-4.28571 -0.28572,-0.38096 0.33672,-1.09186 0,-1.42857 -0.33672,-0.33672 -0.95238,0 -1.42857,0 -0.47619,0 -0.95238,0 -1.42857,0 -3.80953,0 -7.61905,0 -11.42858,0 -0.95238,0 -2.1837,0.67343 -2.85714,0 -0.67343,-0.67344 0.30117,-1.95364 0,-2.85715 -0.21296,-0.63887 -1.1274,-0.82623 -1.42857,-1.42857 -0.45335,-0.90671 0.46314,-6.67972 0,-7.14286 -0.33672,-0.33671 -0.95238,0 -1.42857,0 -0.95238,0 -2.18371,0.67344 -2.85714,0 -0.67344,-0.67343 0.42591,-2.0053 0,-2.85714 -0.21296,-0.42592 -1.00266,0.21296 -1.42858,0 -0.60233,-0.30117 -0.95238,-0.95238 -1.42857,-1.42857 -1.42857,0 -2.93045,0.45175 -4.28571,0 -0.45176,-0.15059 0.33672,-1.09185 0,-1.42857 -0.34376,-0.34376 -5.37053,0.34376 -5.71429,0 -0.67343,-0.67344 0.42592,-2.00531 0,-2.85714 -0.18852,-0.37705 -2.00382,0.28443 -2.85714,0 -1.01015,-0.33672 -1.84699,-1.09186 -2.85714,-1.42858 -0.90351,-0.30117 -1.90476,0 -2.85715,0 -1.90476,0 -3.80952,0 -5.71428,0 -0.95238,0 -2.00531,0.42592 -2.85714,0 -0.42592,-0.21296 0.33671,-1.09185 0,-1.42857 -0.33672,-0.33672 -0.95239,0 -1.42858,0 -1,0 -3.71402,0 -4.28571,0"
       id="path3028"
       inkscape:connector-curvature="0" />
    <path
       style="fill:#00ff00;fill-opacity:1;stroke:#00ff00;stroke-width:2.85714293;stroke-miterlimit:4;stroke-opacity:1;stroke-dasharray:none"
       d="m 205.50763,661.52707 0,-25.4521 8.7619,1.03311 c 4.81904,0.56821 9.15833,1.60653 9.64285,2.30736 0.48453,0.70084 3.61311,2.07233 6.95239,3.04776 3.33929,0.97543 6.07143,2.39056 6.07143,3.14473 0,0.75418 0.96429,1.37123 2.14286,1.37123 1.314,0 2.14285,1.33622 2.14285,3.45459 0,6.89431 1.2631,7.97398 9.32867,7.97398 6.53347,0 8.19312,0.59871 11.88013,4.28571 2.35714,2.35715 3.89251,4.28572 3.41194,4.28572 -0.48057,0 0.53316,1.31076 2.25275,2.91279 2.40474,2.24036 3.12651,4.54891 3.12651,10 l 0,7.08721 -32.85714,0 -32.85714,0 0,-25.45209 z"
       id="path3128"
       inkscape:connector-curvature="0" />
    <path
       style="fill:#ffff00;fill-opacity:1;stroke:#ffff00;stroke-width:2.85714293;stroke-miterlimit:4;stroke-opacity:1;stroke-dasharray:none"
       d="m 280.98914,682.54201 c 0,-6.25196 3.52144,-18.25611 5.35546,-18.25611 1.01676,0 2.5179,-1.46885 3.33587,-3.2641 1.4167,-3.10933 11.62713,-9.60542 15.0844,-9.59701 0.89808,0.002 1.98929,-0.92485 2.42492,-2.06007 0.43562,-1.13523 3.23654,-2.50237 6.22426,-3.03809 2.98773,-0.53573 6.48764,-1.89357 7.77759,-3.01743 1.28994,-1.12385 5.04894,-2.29084 8.35333,-2.5933 3.30438,-0.30247 6.74897,-1.56292 7.65464,-2.80101 0.96566,-1.32009 4.89614,-2.63299 9.50381,-3.17455 4.56746,-0.53684 8.58578,-1.87201 9.59743,-3.18897 1.38614,-1.80447 1.74952,3.47593 1.78571,25.94881 l 0.0454,28.21429 -38.57143,0 -38.57142,0 0,-3.17246 z"
       id="path3136"
       inkscape:connector-curvature="0" />
    <rect
       style="fill:#ffffff;fill-opacity:1;stroke:#800080;stroke-width:2.19737339;stroke-miterlimit:4;stroke-opacity:1;stroke-dasharray:none"
       id="rect2995-0"
       width="158.37405"
       height="136.9455"
       x="459.68857"
       y="551.54419" />
    <flowRoot
       xml:space="preserve"
       id="flowRoot2987-7-8"
       style="font-size:15px;font-style:normal;font-weight:normal;line-height:125%;letter-spacing:0px;word-spacing:0px;fill:#000000;fill-opacity:1;stroke:none;font-family:Sans"
       transform="translate(99.7304,118.05856)"><flowRegion
         id="flowRegion2989-4-6"><rect
           id="rect2991-2-7"
           width="357.14285"
           height="124.28571"
           x="368.57144"
           y="439.80878" /></flowRegion><flowPara
         id="flowPara2993-4-8"
         style="font-size:20px;text-align:start;text-anchor:start">Proposal 2</flowPara><flowPara
         style="font-size:14px;text-align:start;text-anchor:start"
         id="flowPara3179">86a388b4923942e7</flowPara></flowRoot>    <rect
       style="fill:#ffffff;fill-opacity:1;stroke:#800080;stroke-width:2;stroke-miterlimit:4;stroke-opacity:1;stroke-dasharray:none"
       id="rect2995-9"
       width="101.49513"
       height="99.259468"
       x="169.95047"
       y="421.59018" />
    <flowRoot
       xml:space="preserve"
       id="flowRoot2987-7-3"
       style="font-size:15px;font-style:normal;font-weight:normal;line-height:125%;letter-spacing:0px;word-spacing:0px;fill:#000000;fill-opacity:1;stroke:none;font-family:Sans"
       transform="translate(-193.01143,-14.802774)"><flowRegion
         id="flowRegion2989-4-1"><rect
           id="rect2991-2-76"
           width="357.14285"
           height="124.28571"
           x="368.57144"
           y="439.80878" /></flowRegion><flowPara
         style="font-size:12px;text-align:start;text-anchor:start"
         id="flowPara3177-5">Asset R[1]</flowPara><flowPara
         style="font-size:12px;text-align:start;text-anchor:start"
         id="flowPara3231" /><flowPara
         style="font-size:12px;text-align:start;text-anchor:start"
         id="flowPara3235">6130:</flowPara><flowPara
         style="font-size:12px;text-align:start;text-anchor:start"
         id="flowPara3239">6f3d: </flowPara><flowPara
         style="font-size:12px;text-align:start;text-anchor:start"
         id="flowPara3243">4847:</flowPara><flowPara
         style="font-size:12px;text-align:start;text-anchor:start"
         id="flowPara3245">7a26:</flowPara><flowPara
         style="font-size:12px;text-align:start;text-anchor:start"
         id="flowPara3241" /></flowRoot>    <flowRoot
       xml:space="preserve"
       id="flowRoot3247"
       style="font-size:15px;font-style:normal;font-weight:normal;text-align:end;line-height:125%;letter-spacing:0px;word-spacing:0px;text-anchor:end;fill:#000000;fill-opacity:1;stroke:none;font-family:Sans"
       transform="translate(148.47212,349.29815)"><flowRegion
         id="flowRegion3249"><rect
           id="rect3251"
           width="45.456863"
           height="68.690376"
           x="71.720833"
           y="105.67807"
           style="text-align:end;text-anchor:end" /></flowRegion><flowPara
         id="flowPara3253"
         style="font-size:12px">1200</flowPara><flowPara
         style="font-size:12px"
         id="flowPara3255">4848</flowPara><flowPara
         style="font-size:12px"
         id="flowPara3257">52</flowPara><flowPara
         style="font-size:12px"
         id="flowPara3259">100</flowPara></flowRoot>    <rect
       style="fill:#ffffff;fill-opacity:1;stroke:#800080;stroke-width:2;stroke-miterlimit:4;stroke-opacity:1;stroke-dasharray:none"
       id="rect2995-9-5"
       width="101.49513"
       height="99.259468"
       x="291.67386"
       y="422.60031" />
    <flowRoot
       xml:space="preserve"
       id="flowRoot2987-7-3-2"
       style="font-size:15px;font-style:normal;font-weight:normal;line-height:125%;letter-spacing:0px;word-spacing:0px;fill:#000000;fill-opacity:1;stroke:none;font-family:Sans"
       transform="translate(-71.288051,-13.792639)"><flowRegion
         id="flowRegion2989-4-1-2"><rect
           id="rect2991-2-76-4"
           width="357.14285"
           height="124.28571"
           x="368.57144"
           y="439.80878" /></flowRegion><flowPara
         style="font-size:12px;text-align:start;text-anchor:start"
         id="flowPara3177-5-4">Asset S[1]</flowPara><flowPara
         style="font-size:12px;text-align:start;text-anchor:start"
         id="flowPara3231-3" /><flowPara
         style="font-size:12px;text-align:start;text-anchor:start"
         id="flowPara3235-2">4a5c:</flowPara><flowPara
         style="font-size:12px;text-align:start;text-anchor:start"
         id="flowPara3239-3">2e63: </flowPara><flowPara
         style="font-size:12px;text-align:start;text-anchor:start"
         id="flowPara3243-9">fff4:</flowPara><flowPara
         style="font-size:12px;text-align:start;text-anchor:start"
         id="flowPara3245-6">2e82:</flowPara><flowPara
         style="font-size:12px;text-align:start;text-anchor:start"
         id="flowPara3241-8" /></flowRoot>    <flowRoot
       xml:space="preserve"
       id="flowRoot3247-6"
       style="font-size:15px;font-style:normal;font-weight:normal;text-align:end;line-height:125%;letter-spacing:0px;word-spacing:0px;text-anchor:end;fill:#000000;fill-opacity:1;stroke:none;font-family:Sans"
       transform="translate(270.1955,350.30829)"><flowRegion
         id="flowRegion3249-6"><rect
           id="rect3251-2"
           width="45.456863"
           height="68.690376"
           x="71.720833"
           y="105.67807"
           style="text-align:end;text-anchor:end" /></flowRegion><flowPara
         id="flowPara3253-1"
         style="font-size:12px">30425</flowPara><flowPara
         style="font-size:12px"
         id="flowPara3255-0">88241</flowPara><flowPara
         style="font-size:12px"
         id="flowPara3259-1">10000</flowPara><flowPara
         style="font-size:12px"
         id="flowPara3332">10618</flowPara></flowRoot>    <rect
       style="fill:#ffffff;fill-opacity:1;stroke:#800080;stroke-width:2;stroke-miterlimit:4;stroke-opacity:1;stroke-dasharray:none"
       id="rect2995-9-6"
       width="101.49513"
       height="99.259468"
       x="427.81219"
       y="421.38965" />
    <flowRoot
       xml:space="preserve"
       id="flowRoot2987-7-3-29"
       style="font-size:15px;font-style:normal;font-weight:normal;line-height:125%;letter-spacing:0px;word-spacing:0px;fill:#000000;fill-opacity:1;stroke:none;font-family:Sans"
       transform="translate(64.850308,-15.003301)"><flowRegion
         id="flowRegion2989-4-1-1"><rect
           id="rect2991-2-76-8"
           width="357.14285"
           height="124.28571"
           x="368.57144"
           y="439.80878" /></flowRegion><flowPara
         style="font-size:12px;text-align:start;text-anchor:start"
         id="flowPara3177-5-3">Asset R[2]</flowPara><flowPara
         style="font-size:12px;text-align:start;text-anchor:start"
         id="flowPara3231-2" /><flowPara
         style="font-size:12px;text-align:start;text-anchor:start"
         id="flowPara3235-3">6943:</flowPara><flowPara
         style="font-size:12px;text-align:start;text-anchor:start"
         id="flowPara3239-5">8ff2: </flowPara><flowPara
         style="font-size:12px;text-align:start;text-anchor:start"
         id="flowPara3243-92">dd38:</flowPara><flowPara
         style="font-size:12px;text-align:start;text-anchor:start"
         id="flowPara3245-7">040f:</flowPara><flowPara
         style="font-size:12px;text-align:start;text-anchor:start"
         id="flowPara3241-6" /></flowRoot>    <flowRoot
       xml:space="preserve"
       id="flowRoot3247-9"
       style="font-size:15px;font-style:normal;font-weight:normal;text-align:end;line-height:125%;letter-spacing:0px;word-spacing:0px;text-anchor:end;fill:#000000;fill-opacity:1;stroke:none;font-family:Sans"
       transform="translate(406.33386,349.09762)"><flowRegion
         id="flowRegion3249-9"><rect
           id="rect3251-0"
           width="45.456863"
           height="68.690376"
           x="71.720833"
           y="105.67807"
           style="text-align:end;text-anchor:end" /></flowRegion><flowPara
         id="flowPara3253-4"
         style="font-size:12px">675</flowPara><flowPara
         style="font-size:12px"
         id="flowPara3255-5">9001</flowPara><flowPara
         style="font-size:12px"
         id="flowPara3257-4">3073</flowPara><flowPara
         style="font-size:12px"
         id="flowPara3259-8">5040</flowPara></flowRoot>    <rect
       style="fill:#ffffff;fill-opacity:1;stroke:#800080;stroke-width:2;stroke-miterlimit:4;stroke-opacity:1;stroke-dasharray:none"
       id="rect2995-9-5-9"
       width="101.49513"
       height="99.259468"
       x="549.53558"
       y="422.39978" />
    <flowRoot
       xml:space="preserve"
       id="flowRoot2987-7-3-2-3"
       style="font-size:15px;font-style:normal;font-weight:normal;line-height:125%;letter-spacing:0px;word-spacing:0px;fill:#000000;fill-opacity:1;stroke:none;font-family:Sans"
       transform="translate(186.57369,-13.993161)"><flowRegion
         id="flowRegion2989-4-1-2-4"><rect
           id="rect2991-2-76-4-7"
           width="357.14285"
           height="124.28571"
           x="368.57144"
           y="439.80878" /></flowRegion><flowPara
         style="font-size:12px;text-align:start;text-anchor:start"
         id="flowPara3177-5-4-2">Asset S[2]</flowPara><flowPara
         style="font-size:12px;text-align:start;text-anchor:start"
         id="flowPara3231-3-0" /><flowPara
         style="font-size:12px;text-align:start;text-anchor:start"
         id="flowPara3235-2-1">f889:</flowPara><flowPara
         style="font-size:12px;text-align:start;text-anchor:start"
         id="flowPara3239-3-3">4a11: </flowPara><flowPara
         style="font-size:12px;text-align:start;text-anchor:start"
         id="flowPara3243-9-3">73b0:</flowPara><flowPara
         style="font-size:12px;text-align:start;text-anchor:start"
         id="flowPara3245-6-6">9418:</flowPara><flowPara
         style="font-size:12px;text-align:start;text-anchor:start"
         id="flowPara3241-8-4" /></flowRoot>    <flowRoot
       xml:space="preserve"
       id="flowRoot3247-6-1"
       style="font-size:15px;font-style:normal;font-weight:normal;text-align:end;line-height:125%;letter-spacing:0px;word-spacing:0px;text-anchor:end;fill:#000000;fill-opacity:1;stroke:none;font-family:Sans"
       transform="translate(528.05724,350.10776)"><flowRegion
         id="flowRegion3249-6-1"><rect
           id="rect3251-2-5"
           width="45.456863"
           height="68.690376"
           x="71.720833"
           y="105.67807"
           style="text-align:end;text-anchor:end" /></flowRegion><flowPara
         id="flowPara3253-1-2"
         style="font-size:12px">66111</flowPara><flowPara
         style="font-size:12px"
         id="flowPara3255-0-9">31336</flowPara><flowPara
         style="font-size:12px"
         id="flowPara3259-1-9">454</flowPara><flowPara
         style="font-size:12px"
         id="flowPara3332-4">9780</flowPara></flowRoot>    <rect
       style="fill:#ffffff;fill-opacity:1;stroke:#800080;stroke-width:2.19737339;stroke-miterlimit:4;stroke-opacity:1;stroke-dasharray:none"
       id="rect2995-0-4"
       width="158.37405"
       height="136.9455"
       x="718.28766"
       y="551.9223" />
    <flowRoot
       xml:space="preserve"
       id="flowRoot2987-7-8-6"
       style="font-size:15px;font-style:normal;font-weight:normal;line-height:125%;letter-spacing:0px;word-spacing:0px;fill:#000000;fill-opacity:1;stroke:none;font-family:Sans"
       transform="translate(358.32946,118.43668)"><flowRegion
         id="flowRegion2989-4-6-5"><rect
           id="rect2991-2-7-6"
           width="357.14285"
           height="124.28571"
           x="368.57144"
           y="439.80878" /></flowRegion><flowPara
         id="flowPara2993-4-8-3"
         style="font-size:20px;text-align:start;text-anchor:start">Proposal 3</flowPara><flowPara
         style="font-size:14px;text-align:start;text-anchor:start"
         id="flowPara3179-1">b44179bfcb50bf69</flowPara></flowRoot>    <rect
       style="fill:#ffffff;fill-opacity:1;stroke:#800080;stroke-width:2;stroke-miterlimit:4;stroke-opacity:1;stroke-dasharray:none"
       id="rect2995-9-6-2"
       width="101.49513"
       height="99.259468"
       x="686.41125"
       y="421.76779" />
    <flowRoot
       xml:space="preserve"
       id="flowRoot2987-7-3-29-2"
       style="font-size:15px;font-style:normal;font-weight:normal;line-height:125%;letter-spacing:0px;word-spacing:0px;fill:#000000;fill-opacity:1;stroke:none;font-family:Sans"
       transform="translate(323.44937,-14.625176)"><flowRegion
         id="flowRegion2989-4-1-1-6"><rect
           id="rect2991-2-76-8-0"
           width="357.14285"
           height="124.28571"
           x="368.57144"
           y="439.80878" /></flowRegion><flowPara
         style="font-size:12px;text-align:start;text-anchor:start"
         id="flowPara3177-5-3-1">Asset R[3]</flowPara><flowPara
         style="font-size:12px;text-align:start;text-anchor:start"
         id="flowPara3231-2-1" /><flowPara
         style="font-size:12px;text-align:start;text-anchor:start"
         id="flowPara3235-3-6">ab7b:</flowPara><flowPara
         style="font-size:12px;text-align:start;text-anchor:start"
         id="flowPara3239-5-0">0bf4: </flowPara><flowPara
         style="font-size:12px;text-align:start;text-anchor:start"
         id="flowPara3243-92-3">7600:</flowPara><flowPara
         style="font-size:12px;text-align:start;text-anchor:start"
         id="flowPara3245-7-9">455c:</flowPara><flowPara
         style="font-size:12px;text-align:start;text-anchor:start"
         id="flowPara3241-6-1" /></flowRoot>    <flowRoot
       xml:space="preserve"
       id="flowRoot3247-9-8"
       style="font-size:15px;font-style:normal;font-weight:normal;text-align:end;line-height:125%;letter-spacing:0px;word-spacing:0px;text-anchor:end;fill:#000000;fill-opacity:1;stroke:none;font-family:Sans"
       transform="translate(664.93292,349.47574)"><flowRegion
         id="flowRegion3249-9-2"><rect
           id="rect3251-0-0"
           width="45.456863"
           height="68.690376"
           x="71.720833"
           y="105.67807"
           style="text-align:end;text-anchor:end" /></flowRegion><flowPara
         id="flowPara3253-4-4"
         style="font-size:12px">3906</flowPara><flowPara
         style="font-size:12px"
         id="flowPara3255-5-5">117</flowPara><flowPara
         style="font-size:12px"
         id="flowPara3257-4-1">995</flowPara><flowPara
         style="font-size:12px"
         id="flowPara3259-8-0">2048</flowPara></flowRoot>    <rect
       style="fill:#ffffff;fill-opacity:1;stroke:#800080;stroke-width:2;stroke-miterlimit:4;stroke-opacity:1;stroke-dasharray:none"
       id="rect2995-9-5-9-8"
       width="101.49513"
       height="99.259468"
       x="808.13464"
       y="420.77792" />
    <flowRoot
       xml:space="preserve"
       id="flowRoot2987-7-3-2-3-2"
       style="font-size:15px;font-style:normal;font-weight:normal;line-height:125%;letter-spacing:0px;word-spacing:0px;fill:#000000;fill-opacity:1;stroke:none;font-family:Sans"
       transform="translate(445.17275,-15.615036)"><flowRegion
         id="flowRegion2989-4-1-2-4-1"><rect
           id="rect2991-2-76-4-7-4"
           width="357.14285"
           height="124.28571"
           x="368.57144"
           y="439.80878" /></flowRegion><flowPara
         style="font-size:12px;text-align:start;text-anchor:start"
         id="flowPara3177-5-4-2-6">Asset S[3]</flowPara><flowPara
         style="font-size:12px;text-align:start;text-anchor:start"
         id="flowPara3231-3-0-9" /><flowPara
         style="font-size:12px;text-align:start;text-anchor:start"
         id="flowPara3235-2-1-0">eda1:</flowPara><flowPara
         style="font-size:12px;text-align:start;text-anchor:start"
         id="flowPara3239-3-3-3">cfb8: </flowPara><flowPara
         style="font-size:12px;text-align:start;text-anchor:start"
         id="flowPara3243-9-3-4">ea36:</flowPara><flowPara
         style="font-size:12px;text-align:start;text-anchor:start"
         id="flowPara3245-6-6-1">27e2:</flowPara><flowPara
         style="font-size:12px;text-align:start;text-anchor:start"
         id="flowPara3241-8-4-1" /></flowRoot>    <flowRoot
       xml:space="preserve"
       id="flowRoot3247-6-1-0"
       style="font-size:15px;font-style:normal;font-weight:normal;text-align:end;line-height:125%;letter-spacing:0px;word-spacing:0px;text-anchor:end;fill:#000000;fill-opacity:1;stroke:none;font-family:Sans"
       transform="translate(784.6563,348.48588)"><flowRegion
         id="flowRegion3249-6-1-5"><rect
           id="rect3251-2-5-3"
           width="49.497475"
           height="68.690376"
           x="71.720833"
           y="105.67807"
           style="text-align:end;text-anchor:end" /></flowRegion><flowPara
         id="flowPara3253-1-2-2"
         style="font-size:12px">102580</flowPara><flowPara
         style="font-size:12px"
         id="flowPara3255-0-9-1">9615</flowPara><flowPara
         style="font-size:12px"
         id="flowPara3259-1-9-5">75200</flowPara><flowPara
         style="font-size:12px"
         id="flowPara3332-4-5">65306</flowPara></flowRoot>    <path
       style="fill:#ffff00;fill-opacity:1;stroke:#ffff00;stroke-width:2.02030516;stroke-miterlimit:4;stroke-opacity:1;stroke-dasharray:none"
       d="m 812.6861,684.86599 c -1.4615,-5.45356 0.66458,-19.95052 2.92588,-19.95052 0.69485,0 1.57129,-1.6414 1.94765,-3.64757 0.45018,-2.39969 1.3526,-3.82234 2.6378,-4.15842 1.07443,-0.28097 1.95351,-1.28774 1.95351,-2.23726 0,-2.381 4.20518,-6.11919 6.88364,-6.11919 1.28122,0 2.20773,-0.63089 2.20773,-1.50332 0,-0.82682 0.7955,-1.42392 1.76777,-1.32689 2.68623,0.2681 10.35406,-1.3687 10.35406,-2.2102 0,-0.87514 10.19207,-3.04081 14.31061,-3.04081 1.5741,0 2.86199,-0.4006 2.86199,-0.89023 0,-0.96363 7.67279,-3.15038 11.05392,-3.15038 2.0419,0 2.07806,0.43946 2.07806,25.25381 l 0,25.25382 -30.18676,0 -30.18676,0 -0.6091,-2.27284 z"
       id="path3617"
       inkscape:connector-curvature="0" />
    <path
       style="fill:#00ff00;fill-opacity:1;stroke:#00ff00;stroke-width:2.02030516;stroke-miterlimit:4;stroke-opacity:1;stroke-dasharray:none"
       d="m 720.12554,664.4104 c 0,-20.33412 0.60768,-25.84641 2.34905,-21.30846 0.2997,0.78099 1.93932,1.72624 3.64361,2.10057 1.70429,0.37432 3.09871,1.24709 3.09871,1.93947 0,1.67926 3.98504,5.24944 6.81853,6.10871 1.25007,0.37909 2.27285,1.34047 2.27285,2.13641 0,0.79593 0.90913,1.44715 2.0203,1.44715 1.3009,0 2.02031,0.67344 2.02031,1.8912 0,1.42528 0.99545,2.05038 4.04061,2.53732 2.22233,0.35537 4.04061,1.08666 4.04061,1.62509 0,0.53843 1.25006,1.2897 2.77792,1.66949 1.52785,0.37979 3.91434,1.50886 5.3033,2.50904 1.79725,1.29419 4.63795,1.87295 9.85245,2.00732 4.65346,0.11991 7.7332,0.67815 8.44006,1.52986 0.61213,0.73758 2.54249,2.08903 4.28968,3.00322 1.74718,0.9142 4.42676,2.32063 5.95462,3.1254 1.52785,0.80478 2.77792,2.1118 2.77792,2.90448 0,1.28036 1.95175,1.85585 5.80837,1.71262 0.69448,-0.0258 1.2627,0.82638 1.2627,1.89372 0,1.06837 1.02157,2.35124 2.27284,2.85419 1.41474,0.56865 -13.07759,0.93774 -38.3858,0.9776 l -40.65864,0.064 0,-22.72843 z"
       id="path3623"
       inkscape:connector-curvature="0" />
    <path
       style="fill:#00ff00;fill-opacity:1;stroke:#00ff00;stroke-width:2.02030516;stroke-miterlimit:4;stroke-opacity:1;stroke-dasharray:none"
       d="m 461.52649,653.75755 0,-32.35083 2.85149,1.47457 c 1.56832,0.81101 3.44226,2.18639 4.1643,3.0564 0.72204,0.87001 1.86669,1.58183 2.54366,1.58183 1.86685,0 10.6436,8.6637 10.6436,10.50651 0,0.88843 0.7597,1.61532 1.68823,1.61532 0.92852,0 2.49297,0.72829 3.47656,1.61842 0.98358,0.89013 2.95097,1.68562 4.37197,1.76777 1.72997,0.1 2.58388,0.73344 2.58436,1.91711 4.2e-4,1.0548 0.76461,1.76777 1.89475,1.76777 1.29636,0 2.08529,0.95628 2.50013,3.03046 0.35004,1.7502 1.24593,3.03045 2.12063,3.03045 0.833,0 2.1985,1.32264 3.03446,2.9392 0.83595,1.61656 1.98502,3.09423 2.55348,3.28372 0.95175,0.31724 2.96265,16.1659 3.02349,23.82912 l 0.0261,3.283 -23.73859,0 -23.73858,0 0,-32.35082 z"
       id="path3627"
       inkscape:connector-curvature="0" />
    <path
       style="fill:#ffff00;fill-opacity:1;stroke:#ffff00;stroke-width:2.02030516;stroke-miterlimit:4;stroke-opacity:1;stroke-dasharray:none"
       d="m 521.88311,685.08705 c 1.25006,-0.50247 2.27284,-1.38279 2.27284,-1.95628 0,-0.57348 0.90914,-1.0427 2.02031,-1.0427 1.11116,0 2.89156,-0.87126 3.95643,-1.93613 1.06487,-1.06487 2.20129,-1.67096 2.52538,-1.34687 0.32409,0.32409 0.58925,0.0589 0.58925,-0.58925 0,-0.64818 0.62884,-1.17851 1.39742,-1.17851 0.76857,0 1.63516,-0.90914 1.92573,-2.02031 0.3161,-1.20875 1.37787,-2.0203 2.6432,-2.0203 1.16318,0 2.11487,-0.63024 2.11487,-1.40054 0,-0.88162 1.6536,-1.6485 4.46309,-2.06981 2.4547,-0.3681 5.01049,-1.32886 5.67953,-2.135 0.66904,-0.80615 2.86541,-1.47242 4.88082,-1.48061 5.99716,-0.0244 8.53753,-1.91155 9.51925,-7.07161 0.47405,-2.49164 1.47436,-5.009 2.22291,-5.59413 0.74856,-0.58513 1.51013,-2.63069 1.69238,-4.54569 0.29321,-3.08089 0.69722,-3.51735 3.50859,-3.79046 1.74747,-0.16976 3.97712,-1.19254 4.95478,-2.27284 0.97767,-1.08031 2.78788,-1.9642 4.02271,-1.9642 1.23482,0 2.76896,-0.63117 3.40919,-1.40261 0.64024,-0.77143 3.76424,-1.72492 6.94222,-2.11885 3.17798,-0.39393 7.31101,-1.35375 9.18451,-2.13292 1.8735,-0.77918 5.62369,-1.41668 8.33376,-1.41668 l 4.9274,0 0,26.26396 0,26.26397 -47.72971,-0.064 c -29.52451,-0.0396 -46.86279,-0.41249 -45.45686,-0.9776 z"
       id="path3629"
       inkscape:connector-curvature="0" />
    <flowRoot
       xml:space="preserve"
       id="flowRoot3631"
       style="font-size:15px;font-style:normal;font-weight:normal;line-height:125%;letter-spacing:0px;word-spacing:0px;fill:#000000;fill-opacity:1;stroke:none;font-family:Sans"
       transform="translate(102.02541,310.288)"><flowRegion
         id="flowRegion3633"><rect
           id="rect3635"
           width="96.974648"
           height="55.558392"
           x="151.52289"
           y="389.53094" /></flowRegion><flowPara
         id="flowPara3637"
         style="fill:#0000ff">16.10</flowPara></flowRoot>    <flowRoot
       xml:space="preserve"
       id="flowRoot3631-5"
       style="font-size:15px;font-style:normal;font-weight:normal;line-height:125%;letter-spacing:0px;word-spacing:0px;fill:#000000;fill-opacity:1;stroke:none;font-family:Sans"
       transform="translate(336.84517,310.9591)"><flowRegion
         id="flowRegion3633-3"><rect
           id="rect3635-5"
           width="96.974648"
           height="55.558392"
           x="151.52289"
           y="389.53094" /></flowRegion><flowPara
         id="flowPara3637-0"
         style="fill:#0000ff">11.26</flowPara></flowRoot>    <flowRoot
       xml:space="preserve"
       id="flowRoot3631-5-2"
       style="font-size:15px;font-style:normal;font-weight:normal;line-height:125%;letter-spacing:0px;word-spacing:0px;fill:#000000;fill-opacity:1;stroke:none;font-family:Sans"
       transform="translate(631.60134,310.89818)"><flowRegion
         id="flowRegion3633-3-9"><rect
           id="rect3635-5-9"
           width="96.974648"
           height="55.558392"
           x="151.52289"
           y="389.53094" /></flowRegion><flowPara
         id="flowPara3637-0-6"
         style="fill:#0000ff">18.75</flowPara></flowRoot>    <path
       style="fill:none;stroke:#0000ff;stroke-width:1px;stroke-linecap:butt;stroke-linejoin:miter;stroke-opacity:1"
       d="m 275.77165,699.81894 0,-11.11168"
       id="path3695"
       inkscape:connector-curvature="0" />
    <path
       style="fill:none;stroke:#0000ff;stroke-width:1px;stroke-linecap:butt;stroke-linejoin:miter;stroke-opacity:1"
       d="m 510.24887,700.38493 0,-11.11168"
       id="path3695-9"
       inkscape:connector-curvature="0" />
    <path
       style="fill:none;stroke:#0000ff;stroke-width:1px;stroke-linecap:butt;stroke-linejoin:miter;stroke-opacity:1"
       d="m 806.84792,700.93317 0,-11.11168"
       id="path3695-3"
       inkscape:connector-curvature="0" />
    <path
       style="fill:none;stroke:#800080;stroke-width:1px;stroke-linecap:butt;stroke-linejoin:miter;stroke-opacity:1"
       d="m 183.82746,521.02194 0,137.38075 18.18274,0"
       id="path3722"
       inkscape:connector-curvature="0" />
    <path
       style="fill:none;stroke:#800080;stroke-width:1px;stroke-linecap:butt;stroke-linejoin:miter;stroke-opacity:1"
       d="m 440.42652,521.02194 0,137.38075 18.18274,0"
       id="path3722-4"
       inkscape:connector-curvature="0" />
    <path
       style="fill:none;stroke:#800080;stroke-width:1px;stroke-linecap:butt;stroke-linejoin:miter;stroke-opacity:1"
       d="m 701.04586,520.01179 0,137.38075 18.18274,0"
       id="path3722-0"
       inkscape:connector-curvature="0" />
    <path
       style="fill:none;stroke:#800080;stroke-width:1px;stroke-linecap:butt;stroke-linejoin:miter;stroke-opacity:1"
       d="m 377.79705,522.01179 0,137.38075 -18.18274,0"
       id="path3722-5"
       inkscape:connector-curvature="0" />
    <path
       style="fill:none;stroke:#800080;stroke-width:1px;stroke-linecap:butt;stroke-linejoin:miter;stroke-opacity:1"
       d="m 636.3961,523.04225 0,137.38075 -18.18274,0"
       id="path3722-5-2"
       inkscape:connector-curvature="0" />
    <path
       style="fill:none;stroke:#800080;stroke-width:1px;stroke-linecap:butt;stroke-linejoin:miter;stroke-opacity:1"
       d="m 894.99515,521.02194 0,137.38075 -18.18274,0"
       id="path3722-5-8"
       inkscape:connector-curvature="0" />
    <path
       style="fill:none;stroke:#800080;stroke-width:1px;stroke-linecap:butt;stroke-linejoin:miter;stroke-opacity:1"
       d="m 752.56364,687.69711 0,137.38075 -18.18274,0"
       id="path3722-5-88"
       inkscape:connector-curvature="0" />
    <path
       style="fill:none;stroke:#800080;stroke-width:1px;stroke-linecap:butt;stroke-linejoin:miter;stroke-opacity:1"
       d="m 336.3808,689.71742 0,137.38075 18.18274,0"
       id="path3722-5-88-7"
       inkscape:connector-curvature="0" />
    <path
       style="fill:none;stroke:#800080;stroke-width:1;stroke-linecap:butt;stroke-linejoin:miter;stroke-opacity:1"
       d="m 545.48577,786.67515 -1.01695,-97.99159"
       id="path3831"
       inkscape:connector-curvature="0" />
  </g>
</svg>
