<?xml version="1.0" encoding="UTF-8" standalone="no"?>
<!-- Created with Inkscape (http://www.inkscape.org/) -->

<svg
   xmlns:dc="http://purl.org/dc/elements/1.1/"
   xmlns:cc="http://creativecommons.org/ns#"
   xmlns:rdf="http://www.w3.org/1999/02/22-rdf-syntax-ns#"
   xmlns:svg="http://www.w3.org/2000/svg"
   xmlns="http://www.w3.org/2000/svg"
   xmlns:sodipodi="http://sodipodi.sourceforge.net/DTD/sodipodi-0.dtd"
   xmlns:inkscape="http://www.inkscape.org/namespaces/inkscape"
   width="1621.4211"
   height="711.39587"
   id="svg5734"
   version="1.1"
   inkscape:version="0.48.4 r9939"
   sodipodi:docname="New document 68">
  <defs
     id="defs5736" />
  <sodipodi:namedview
     id="base"
     pagecolor="#ffffff"
     bordercolor="#666666"
     borderopacity="1.0"
     inkscape:pageopacity="0.0"
     inkscape:pageshadow="2"
     inkscape:zoom="0.35"
     inkscape:cx="673.38491"
     inkscape:cy="202.34575"
     inkscape:document-units="px"
     inkscape:current-layer="layer1"
     showgrid="false"
     fit-margin-top="0"
     fit-margin-left="0"
     fit-margin-right="0"
     fit-margin-bottom="0"
     inkscape:window-width="1600"
     inkscape:window-height="824"
     inkscape:window-x="0"
     inkscape:window-y="24"
     inkscape:window-maximized="1" />
  <metadata
     id="metadata5739">
    <rdf:RDF>
      <cc:Work
         rdf:about="">
        <dc:format>image/svg+xml</dc:format>
        <dc:type
           rdf:resource="http://purl.org/dc/dcmitype/StillImage" />
        <dc:title></dc:title>
      </cc:Work>
    </rdf:RDF>
  </metadata>
  <g
     inkscape:label="Layer 1"
     inkscape:groupmode="layer"
     id="layer1"
     transform="translate(298.38491,-23.312006)">
    <path
       transform="matrix(-0.66709346,0,0,-0.66709346,483.19643,1014.6722)"
       sodipodi:type="arc"
       style="fill:none;stroke:#000000;stroke-width:4.49712086;stroke-linecap:butt;stroke-linejoin:miter;stroke-opacity:1"
       id="path2985-0-13-1-5"
       sodipodi:cx="337.14285"
       sodipodi:cy="483.79074"
       sodipodi:rx="54.285713"
       sodipodi:ry="54.285713"
       d="m 391.42857,483.79074 c 0,29.98117 -24.30455,54.28571 -54.28572,54.28571 -29.98117,0 -54.28571,-24.30454 -54.28571,-54.28571 0,-29.98117 24.30454,-54.28571 54.28571,-54.28571 29.98117,0 54.28572,24.30454 54.28572,54.28571 z" />
    <path
       transform="matrix(-0.66709346,0,0,-0.66709346,686.33929,384.95789)"
       sodipodi:type="arc"
       style="fill:none;stroke:#000000;stroke-width:4.49712086;stroke-linecap:butt;stroke-linejoin:miter;stroke-opacity:1"
       id="path2985-0-13-7-2"
       sodipodi:cx="337.14285"
       sodipodi:cy="483.79074"
       sodipodi:rx="54.285713"
       sodipodi:ry="54.285713"
       d="m 391.42857,483.79074 c 0,29.98117 -24.30455,54.28571 -54.28572,54.28571 -29.98117,0 -54.28571,-24.30454 -54.28571,-54.28571 0,-29.98117 24.30454,-54.28571 54.28571,-54.28571 29.98117,0 54.28572,24.30454 54.28572,54.28571 z" />
    <path
       transform="matrix(-0.66709346,0,0,-0.66709346,292.05357,1019.7279)"
       sodipodi:type="arc"
       style="fill:none;stroke:#000000;stroke-width:4.49712086;stroke-linecap:butt;stroke-linejoin:miter;stroke-opacity:1"
       id="path2985-0-13-1-5-9"
       sodipodi:cx="337.14285"
       sodipodi:cy="483.79074"
       sodipodi:rx="54.285713"
       sodipodi:ry="54.285713"
       d="m 391.42857,483.79074 c 0,29.98117 -24.30455,54.28571 -54.28572,54.28571 -29.98117,0 -54.28571,-24.30454 -54.28571,-54.28571 0,-29.98117 24.30454,-54.28571 54.28571,-54.28571 29.98117,0 54.28572,24.30454 54.28572,54.28571 z" />
    <path
       style="fill:none;stroke:#000000;stroke-width:3;stroke-linecap:butt;stroke-linejoin:miter;stroke-opacity:1"
       d="m 221.50769,692.72151 -114.43411,0.14834"
       id="path3044-4-9"
       inkscape:connector-curvature="0" />
    <path
       transform="matrix(-0.66709346,0,0,-0.66709346,903.48214,1016.8708)"
       sodipodi:type="arc"
       style="fill:none;stroke:#000000;stroke-width:4.49712086;stroke-linecap:butt;stroke-linejoin:miter;stroke-opacity:1"
       id="path2985-0-13-1-5-2"
       sodipodi:cx="337.14285"
       sodipodi:cy="483.79074"
       sodipodi:rx="54.285713"
       sodipodi:ry="54.285713"
       d="m 391.42857,483.79074 c 0,29.98117 -24.30455,54.28571 -54.28572,54.28571 -29.98117,0 -54.28571,-24.30454 -54.28571,-54.28571 0,-29.98117 24.30454,-54.28571 54.28571,-54.28571 29.98117,0 54.28572,24.30454 54.28572,54.28571 z" />
    <path
       transform="matrix(-0.66709346,0,0,-0.66709346,1106.3393,386.61642)"
       sodipodi:type="arc"
       style="fill:none;stroke:#000000;stroke-width:4.49712086;stroke-linecap:butt;stroke-linejoin:miter;stroke-opacity:1"
       id="path2985-0-13-7-2-1"
       sodipodi:cx="337.14285"
       sodipodi:cy="483.79074"
       sodipodi:rx="54.285713"
       sodipodi:ry="54.285713"
       d="m 391.42857,483.79074 c 0,29.98117 -24.30455,54.28571 -54.28572,54.28571 -29.98117,0 -54.28571,-24.30454 -54.28571,-54.28571 0,-29.98117 24.30454,-54.28571 54.28571,-54.28571 29.98117,0 54.28572,24.30454 54.28572,54.28571 z" />
    <path
       transform="matrix(-0.66709346,0,0,-0.66709346,74.91072,383.75929)"
       sodipodi:type="arc"
       style="fill:none;stroke:#000000;stroke-width:4.49712086;stroke-linecap:butt;stroke-linejoin:miter;stroke-opacity:1"
       id="path2985-0-13-7-2-4"
       sodipodi:cx="337.14285"
       sodipodi:cy="483.79074"
       sodipodi:rx="54.285713"
       sodipodi:ry="54.285713"
       d="m 391.42857,483.79074 c 0,29.98117 -24.30455,54.28571 -54.28572,54.28571 -29.98117,0 -54.28571,-24.30454 -54.28571,-54.28571 0,-29.98117 24.30454,-54.28571 54.28571,-54.28571 29.98117,0 54.28572,24.30454 54.28572,54.28571 z" />
    <path
       style="fill:none;stroke:#000000;stroke-width:6.01495171;stroke-linecap:butt;stroke-linejoin:miter;stroke-opacity:1"
       d="M -152.8203,375.05761 -152.8841,94.993712"
       id="path3044-4-7-8"
       inkscape:connector-curvature="0" />
    <path
       style="fill:none;stroke:#000000;stroke-width:3;stroke-linecap:butt;stroke-linejoin:miter;stroke-opacity:1"
       d="m 424.30773,61.350055 -537.17703,0.03411"
       id="path3044-4-9-4"
       inkscape:connector-curvature="0" />
    <path
       style="fill:none;stroke:#000000;stroke-width:3;stroke-linecap:butt;stroke-linejoin:miter;stroke-opacity:1"
       d="m 638.60235,692.76971 -348.62343,0.0519"
       id="path3044-4-9-9"
       inkscape:connector-curvature="0" />
    <path
       style="fill:none;stroke:#000000;stroke-width:3;stroke-linecap:butt;stroke-linejoin:miter;stroke-opacity:1"
       d="m 850.03093,58.484018 -348.62343,0.0519"
       id="path3044-4-9-9-2"
       inkscape:connector-curvature="0" />
    <path
       style="fill:none;stroke:#000000;stroke-width:2.69818783;stroke-linecap:butt;stroke-linejoin:miter;stroke-opacity:1"
       d="m 1284.7707,377.93555 -1580.96008,0.006"
       id="path3044-4-03-7"
       inkscape:connector-curvature="0" />
    <path
       style="fill:none;stroke:#000000;stroke-width:3;stroke-linecap:butt;stroke-linejoin:miter;stroke-opacity:1"
       d="m -188.20611,60.854031 -105.8735,0.159162"
       id="path3044-4-03-7-0"
       inkscape:connector-curvature="0" />
    <path
       style="fill:none;stroke:#000000;stroke-width:3;stroke-linecap:butt;stroke-linejoin:miter;stroke-opacity:1"
       d="m 28.8849,694.33444 -325.76981,0.0555"
       id="path3044-4-03-7-0-8"
       inkscape:connector-curvature="0" />
    <path
       transform="matrix(-0.36439714,0,0,-0.33808135,-28.680602,542.55422)"
       sodipodi:type="arc"
       style="fill:#000000;stroke:#000000;stroke-width:4.49712086;stroke-linecap:butt;stroke-linejoin:miter;stroke-opacity:1"
       id="path2985-0-13-7-2-4-2"
       sodipodi:cx="337.14285"
       sodipodi:cy="483.79074"
       sodipodi:rx="54.285713"
       sodipodi:ry="54.285713"
       d="m 391.42857,483.79074 c 0,29.98117 -24.30455,54.28571 -54.28572,54.28571 -29.98117,0 -54.28571,-24.30454 -54.28571,-54.28571 0,-29.98117 24.30454,-54.28571 54.28571,-54.28571 29.98117,0 54.28572,24.30454 54.28572,54.28571 z" />
    <path
       style="fill:none;stroke:#000000;stroke-width:6.01495171;stroke-linecap:butt;stroke-linejoin:miter;stroke-opacity:1"
       d="M 461.46541,376.13304 461.40161,96.069137"
       id="path3044-4-7-8-3"
       inkscape:connector-curvature="0" />
    <path
       transform="matrix(-0.36439714,0,0,-0.33808135,585.60511,543.62965)"
       sodipodi:type="arc"
       style="fill:#000000;stroke:#000000;stroke-width:4.49712086;stroke-linecap:butt;stroke-linejoin:miter;stroke-opacity:1"
       id="path2985-0-13-7-2-4-2-6"
       sodipodi:cx="337.14285"
       sodipodi:cy="483.79074"
       sodipodi:rx="54.285713"
       sodipodi:ry="54.285713"
       d="m 391.42857,483.79074 c 0,29.98117 -24.30455,54.28571 -54.28572,54.28571 -29.98117,0 -54.28571,-24.30454 -54.28571,-54.28571 0,-29.98117 24.30454,-54.28571 54.28571,-54.28571 29.98117,0 54.28572,24.30454 54.28572,54.28571 z" />
    <path
       style="fill:none;stroke:#000000;stroke-width:6.01495171;stroke-linecap:butt;stroke-linejoin:miter;stroke-opacity:1"
       d="M 882.32255,376.99018 882.25875,96.926284"
       id="path3044-4-7-8-9"
       inkscape:connector-curvature="0" />
    <path
       transform="matrix(-0.36439714,0,0,-0.33808135,1006.4623,544.48679)"
       sodipodi:type="arc"
       style="fill:#000000;stroke:#000000;stroke-width:4.49712086;stroke-linecap:butt;stroke-linejoin:miter;stroke-opacity:1"
       id="path2985-0-13-7-2-4-2-1"
       sodipodi:cx="337.14285"
       sodipodi:cy="483.79074"
       sodipodi:rx="54.285713"
       sodipodi:ry="54.285713"
       d="m 391.42857,483.79074 c 0,29.98117 -24.30455,54.28571 -54.28572,54.28571 -29.98117,0 -54.28571,-24.30454 -54.28571,-54.28571 0,-29.98117 24.30454,-54.28571 54.28571,-54.28571 29.98117,0 54.28572,24.30454 54.28572,54.28571 z" />
    <path
       style="fill:none;stroke:#000000;stroke-width:6.01495171;stroke-linecap:butt;stroke-linejoin:miter;stroke-opacity:1"
       d="m 258.60827,380.99701 -0.0638,280.06389"
       id="path3044-4-7-8-92"
       inkscape:connector-curvature="0" />
    <path
       transform="matrix(-0.36439714,0,0,0.33808135,382.74797,213.5004)"
       sodipodi:type="arc"
       style="fill:#000000;stroke:#000000;stroke-width:4.49712086;stroke-linecap:butt;stroke-linejoin:miter;stroke-opacity:1"
       id="path2985-0-13-7-2-4-2-3"
       sodipodi:cx="337.14285"
       sodipodi:cy="483.79074"
       sodipodi:rx="54.285713"
       sodipodi:ry="54.285713"
       d="m 391.42857,483.79074 c 0,29.98117 -24.30455,54.28571 -54.28572,54.28571 -29.98117,0 -54.28571,-24.30454 -54.28571,-54.28571 0,-29.98117 24.30454,-54.28571 54.28571,-54.28571 29.98117,0 54.28572,24.30454 54.28572,54.28571 z" />
    <path
       style="fill:none;stroke:#000000;stroke-width:6.01495171;stroke-linecap:butt;stroke-linejoin:miter;stroke-opacity:1"
       d="m 68.03684,381.85414 -0.0638,280.0639"
       id="path3044-4-7-8-93"
       inkscape:connector-curvature="0" />
    <path
       transform="matrix(-0.36439714,0,0,0.33808135,192.17654,214.35753)"
       sodipodi:type="arc"
       style="fill:#000000;stroke:#000000;stroke-width:4.49712086;stroke-linecap:butt;stroke-linejoin:miter;stroke-opacity:1"
       id="path2985-0-13-7-2-4-2-9"
       sodipodi:cx="337.14285"
       sodipodi:cy="483.79074"
       sodipodi:rx="54.285713"
       sodipodi:ry="54.285713"
       d="m 391.42857,483.79074 c 0,29.98117 -24.30455,54.28571 -54.28572,54.28571 -29.98117,0 -54.28571,-24.30454 -54.28571,-54.28571 0,-29.98117 24.30454,-54.28571 54.28571,-54.28571 29.98117,0 54.28572,24.30454 54.28572,54.28571 z" />
    <path
       style="fill:none;stroke:#000000;stroke-width:6.01298094;stroke-linecap:butt;stroke-linejoin:miter;stroke-opacity:1"
       d="m 677.75211,384.7103 -0.0658,271.49445"
       id="path3044-4-7-8-2"
       inkscape:connector-curvature="0" />
    <path
       transform="matrix(-0.36439714,0,0,0.33808135,801.89082,217.21468)"
       sodipodi:type="arc"
       style="fill:#000000;stroke:#000000;stroke-width:4.49712086;stroke-linecap:butt;stroke-linejoin:miter;stroke-opacity:1"
       id="path2985-0-13-7-2-4-2-8"
       sodipodi:cx="337.14285"
       sodipodi:cy="483.79074"
       sodipodi:rx="54.285713"
       sodipodi:ry="54.285713"
       d="m 391.42857,483.79074 c 0,29.98117 -24.30455,54.28571 -54.28572,54.28571 -29.98117,0 -54.28571,-24.30454 -54.28571,-54.28571 0,-29.98117 24.30454,-54.28571 54.28571,-54.28571 29.98117,0 54.28572,24.30454 54.28572,54.28571 z" />
    <path
       transform="matrix(-0.66709346,0,0,-0.66709346,1510.2284,1019.1224)"
       sodipodi:type="arc"
       style="fill:none;stroke:#000000;stroke-width:4.49712086;stroke-linecap:butt;stroke-linejoin:miter;stroke-opacity:1"
       id="path2985-0-13-1-5-2-9"
       sodipodi:cx="337.14285"
       sodipodi:cy="483.79074"
       sodipodi:rx="54.285713"
       sodipodi:ry="54.285713"
       d="m 391.42857,483.79074 c 0,29.98117 -24.30455,54.28571 -54.28572,54.28571 -29.98117,0 -54.28571,-24.30454 -54.28571,-54.28571 0,-29.98117 24.30454,-54.28571 54.28571,-54.28571 29.98117,0 54.28572,24.30454 54.28572,54.28571 z" />
    <path
       style="fill:none;stroke:#000000;stroke-width:6.01298094;stroke-linecap:butt;stroke-linejoin:miter;stroke-opacity:1"
       d="m 1284.4984,384.96194 -0.066,271.49445"
       id="path3044-4-7-8-2-4"
       inkscape:connector-curvature="0" />
    <path
       transform="matrix(-0.36439714,0,0,0.33808135,1408.6371,217.46632)"
       sodipodi:type="arc"
       style="fill:#000000;stroke:#000000;stroke-width:4.49712086;stroke-linecap:butt;stroke-linejoin:miter;stroke-opacity:1"
       id="path2985-0-13-7-2-4-2-8-7"
       sodipodi:cx="337.14285"
       sodipodi:cy="483.79074"
       sodipodi:rx="54.285713"
       sodipodi:ry="54.285713"
       d="m 391.42857,483.79074 c 0,29.98117 -24.30455,54.28571 -54.28572,54.28571 -29.98117,0 -54.28571,-24.30454 -54.28571,-54.28571 0,-29.98117 24.30454,-54.28571 54.28571,-54.28571 29.98117,0 54.28572,24.30454 54.28572,54.28571 z" />
    <path
       transform="matrix(-0.66709346,0,0,-0.66709346,1310.2284,385.3484)"
       sodipodi:type="arc"
       style="fill:none;stroke:#000000;stroke-width:4.49712086;stroke-linecap:butt;stroke-linejoin:miter;stroke-opacity:1"
       id="path2985-0-13-7-2-1-3"
       sodipodi:cx="337.14285"
       sodipodi:cy="483.79074"
       sodipodi:rx="54.285713"
       sodipodi:ry="54.285713"
       d="m 391.42857,483.79074 c 0,29.98117 -24.30455,54.28571 -54.28572,54.28571 -29.98117,0 -54.28571,-24.30454 -54.28571,-54.28571 0,-29.98117 24.30454,-54.28571 54.28571,-54.28571 29.98117,0 54.28572,24.30454 54.28572,54.28571 z" />
    <path
       style="fill:none;stroke:#000000;stroke-width:6.01495171;stroke-linecap:butt;stroke-linejoin:miter;stroke-opacity:1"
       d="m 1086.2117,375.72217 -0.064,-280.063902"
       id="path3044-4-7-8-9-6"
       inkscape:connector-curvature="0" />
    <path
       transform="matrix(-0.36439714,0,0,-0.33808135,1210.3514,543.21877)"
       sodipodi:type="arc"
       style="fill:#000000;stroke:#000000;stroke-width:4.49712086;stroke-linecap:butt;stroke-linejoin:miter;stroke-opacity:1"
       id="path2985-0-13-7-2-4-2-1-0"
       sodipodi:cx="337.14285"
       sodipodi:cy="483.79074"
       sodipodi:rx="54.285713"
       sodipodi:ry="54.285713"
       d="m 391.42857,483.79074 c 0,29.98117 -24.30455,54.28571 -54.28572,54.28571 -29.98117,0 -54.28571,-24.30454 -54.28571,-54.28571 0,-29.98117 24.30454,-54.28571 54.28571,-54.28571 29.98117,0 54.28572,24.30454 54.28572,54.28571 z" />
    <path
       style="fill:none;stroke:#000000;stroke-width:3;stroke-linecap:butt;stroke-linejoin:miter;stroke-opacity:1"
       d="m 1251.3397,694.69082 -537.17699,0.0341"
       id="path3044-4-9-4-9"
       inkscape:connector-curvature="0" />
    <path
       style="fill:none;stroke:#000000;stroke-width:3.01777577;stroke-linecap:butt;stroke-linejoin:miter;stroke-opacity:1"
       d="M 1048.5308,66.071169 916.97159,66.201733"
       id="path3044-4-9-40"
       inkscape:connector-curvature="0" />
  </g>
</svg>
