<?xml version="1.0" encoding="UTF-8" standalone="no"?>
<!-- Created with Inkscape (http://www.inkscape.org/) -->

<svg
   xmlns:dc="http://purl.org/dc/elements/1.1/"
   xmlns:cc="http://creativecommons.org/ns#"
   xmlns:rdf="http://www.w3.org/1999/02/22-rdf-syntax-ns#"
   xmlns:svg="http://www.w3.org/2000/svg"
   xmlns="http://www.w3.org/2000/svg"
   xmlns:sodipodi="http://sodipodi.sourceforge.net/DTD/sodipodi-0.dtd"
   xmlns:inkscape="http://www.inkscape.org/namespaces/inkscape"
   width="722.82343"
   height="251.43011"
   id="svg3203"
   version="1.1"
   inkscape:version="0.48.4 r9939"
   sodipodi:docname="New document 5">
  <defs
     id="defs3205" />
  <sodipodi:namedview
     id="base"
     pagecolor="#ffffff"
     bordercolor="#666666"
     borderopacity="1.0"
     inkscape:pageopacity="0.0"
     inkscape:pageshadow="2"
     inkscape:zoom="0.7"
     inkscape:cx="452.07418"
     inkscape:cy="65.043124"
     inkscape:document-units="px"
     inkscape:current-layer="layer1"
     showgrid="false"
     fit-margin-top="0"
     fit-margin-left="0"
     fit-margin-right="0"
     fit-margin-bottom="0"
     inkscape:window-width="1600"
     inkscape:window-height="824"
     inkscape:window-x="0"
     inkscape:window-y="24"
     inkscape:window-maximized="1" />
  <metadata
     id="metadata3208">
    <rdf:RDF>
      <cc:Work
         rdf:about="">
        <dc:format>image/svg+xml</dc:format>
        <dc:type
           rdf:resource="http://purl.org/dc/dcmitype/StillImage" />
        <dc:title></dc:title>
      </cc:Work>
    </rdf:RDF>
  </metadata>
  <g
     inkscape:label="Layer 1"
     inkscape:groupmode="layer"
     id="layer1"
     transform="translate(77.074181,-468.36483)">
    <path
       sodipodi:type="arc"
       style="fill:none;stroke:#000000;stroke-width:2.21351528;stroke-opacity:1"
       id="path2985"
       sodipodi:cx="214.28572"
       sodipodi:cy="394.09448"
       sodipodi:rx="42.857143"
       sodipodi:ry="42.857143"
       d="m 257.14286,394.09448 c 0,23.66935 -19.18779,42.85715 -42.85714,42.85715 -23.66935,0 -42.85714,-19.1878 -42.85714,-42.85715 0,-23.66934 19.18779,-42.85714 42.85714,-42.85714 23.66935,0 42.85714,19.1878 42.85714,42.85714 z"
       transform="matrix(0.99914876,0,0,1.838431,207.82724,-123.33552)" />
    <path
       sodipodi:type="arc"
       style="fill:none;stroke:#000000;stroke-width:2.21351528;stroke-opacity:1"
       id="path2985-5"
       sodipodi:cx="214.28572"
       sodipodi:cy="394.09448"
       sodipodi:rx="42.857143"
       sodipodi:ry="42.857143"
       d="m 257.14286,394.09448 c 0,23.66935 -19.18779,42.85715 -42.85714,42.85715 -23.66935,0 -42.85714,-19.1878 -42.85714,-42.85715 0,-23.66934 19.18779,-42.85714 42.85714,-42.85714 23.66935,0 42.85714,19.1878 42.85714,42.85714 z"
       transform="matrix(0.99914876,0,0,1.838431,384.8193,-175.86078)" />
    <path
       style="fill:none;stroke:#000000;stroke-width:3;stroke-linecap:butt;stroke-linejoin:miter;stroke-opacity:1"
       d="m 286.33178,597.50313 91.35075,0"
       id="path3773-88"
       inkscape:connector-curvature="0" />
    <path
       sodipodi:type="arc"
       style="fill:none;stroke:#000000;stroke-width:2.21351528;stroke-opacity:1"
       id="path2985-6"
       sodipodi:cx="214.28572"
       sodipodi:cy="394.09448"
       sodipodi:rx="42.857143"
       sodipodi:ry="42.857143"
       d="m 257.14286,394.09448 c 0,23.66935 -19.18779,42.85715 -42.85714,42.85715 -23.66935,0 -42.85714,-19.1878 -42.85714,-42.85715 0,-23.66934 19.18779,-42.85714 42.85714,-42.85714 23.66935,0 42.85714,19.1878 42.85714,42.85714 z"
       transform="matrix(0.99914876,0,0,1.838431,27.195414,-127.31723)" />
    <path
       style="fill:none;stroke:#000000;stroke-width:3;stroke-linecap:butt;stroke-linejoin:miter;stroke-opacity:1"
       d="m 105.69996,593.52142 91.35074,0"
       id="path3773-88-3"
       inkscape:connector-curvature="0" />
    <path
       sodipodi:type="arc"
       style="fill:none;stroke:#000000;stroke-width:2.21351528;stroke-opacity:1"
       id="path2985-7"
       sodipodi:cx="214.28572"
       sodipodi:cy="394.09448"
       sodipodi:rx="42.857143"
       sodipodi:ry="42.857143"
       d="m 257.14286,394.09448 c 0,23.66935 -19.18779,42.85715 -42.85714,42.85715 -23.66935,0 -42.85714,-19.1878 -42.85714,-42.85715 0,-23.66934 19.18779,-42.85714 42.85714,-42.85714 23.66935,0 42.85714,19.1878 42.85714,42.85714 z"
       transform="matrix(0.99914876,0,0,1.838431,-154.07873,-132.56988)" />
    <path
       style="fill:none;stroke:#000000;stroke-width:3;stroke-linecap:butt;stroke-linejoin:miter;stroke-opacity:1"
       d="m -75.574181,588.26877 91.350753,0"
       id="path3773-88-31"
       inkscape:connector-curvature="0" />
    <path
       style="fill:none;stroke:#000000;stroke-width:2.0894742;stroke-linecap:butt;stroke-linejoin:miter;stroke-opacity:1"
       d="m 460.44237,618.64176 99.62228,25.60141"
       id="path3773-2-6-0"
       inkscape:connector-curvature="0" />
    <path
       sodipodi:type="arc"
       style="fill:none;stroke:#000000;stroke-width:2.21351528;stroke-opacity:1"
       id="path2985-5-4"
       sodipodi:cx="214.28572"
       sodipodi:cy="394.09448"
       sodipodi:rx="42.857143"
       sodipodi:ry="42.857143"
       d="m 257.14286,394.09448 c 0,23.66935 -19.18779,42.85715 -42.85714,42.85715 -23.66935,0 -42.85714,-19.1878 -42.85714,-42.85715 0,-23.66934 19.18779,-42.85714 42.85714,-42.85714 23.66935,0 42.85714,19.1878 42.85714,42.85714 z"
       transform="matrix(0.99914876,0,0,1.838431,387.32526,-85.010474)" />
    <flowRoot
       xml:space="preserve"
       id="flowRoot3298"
       style="font-size:40px;font-style:normal;font-weight:normal;line-height:125%;letter-spacing:0px;word-spacing:0px;fill:#000000;fill-opacity:1;stroke:none;font-family:Sans"
       transform="translate(12.857143,325.98199)"><flowRegion
         id="flowRegion3300"><rect
           id="rect3302"
           width="101.42854"
           height="87.142868"
           x="571.42859"
           y="254.09448" /></flowRegion><flowPara
         id="flowPara3304"
         style="font-size:20px">1/3</flowPara></flowRoot>    <path
       style="fill:none;stroke:#000000;stroke-width:2.04622579;stroke-linecap:butt;stroke-linejoin:miter;stroke-opacity:1"
       d="M 555.54706,549.53985 460.16724,575.1845"
       id="path3773-2-6-0-4"
       inkscape:connector-curvature="0" />
  </g>
</svg>
