<?xml version="1.0" encoding="UTF-8" standalone="no"?>
<!-- Created with Inkscape (http://www.inkscape.org/) -->

<svg
   xmlns:dc="http://purl.org/dc/elements/1.1/"
   xmlns:cc="http://creativecommons.org/ns#"
   xmlns:rdf="http://www.w3.org/1999/02/22-rdf-syntax-ns#"
   xmlns:svg="http://www.w3.org/2000/svg"
   xmlns="http://www.w3.org/2000/svg"
   xmlns:sodipodi="http://sodipodi.sourceforge.net/DTD/sodipodi-0.dtd"
   xmlns:inkscape="http://www.inkscape.org/namespaces/inkscape"
   width="461.60925"
   height="461.60925"
   id="svg4518"
   version="1.1"
   inkscape:version="0.48.4 r9939"
   sodipodi:docname="threepoints.svg">
  <defs
     id="defs4520">
    <inkscape:path-effect
       effect="spiro"
       id="path-effect4632"
       is_visible="true" />
  </defs>
  <sodipodi:namedview
     id="base"
     pagecolor="#ffffff"
     bordercolor="#666666"
     borderopacity="1.0"
     inkscape:pageopacity="0.0"
     inkscape:pageshadow="2"
     inkscape:zoom="0.49497475"
     inkscape:cx="268.41368"
     inkscape:cy="146.73341"
     inkscape:document-units="px"
     inkscape:current-layer="layer1"
     showgrid="false"
     fit-margin-top="0"
     fit-margin-left="0"
     fit-margin-right="0"
     fit-margin-bottom="0"
     inkscape:window-width="1600"
     inkscape:window-height="851"
     inkscape:window-x="0"
     inkscape:window-y="25"
     inkscape:window-maximized="1" />
  <metadata
     id="metadata4523">
    <rdf:RDF>
      <cc:Work
         rdf:about="">
        <dc:format>image/svg+xml</dc:format>
        <dc:type
           rdf:resource="http://purl.org/dc/dcmitype/StillImage" />
        <dc:title></dc:title>
      </cc:Work>
    </rdf:RDF>
  </metadata>
  <g
     inkscape:label="Layer 1"
     inkscape:groupmode="layer"
     id="layer1"
     transform="translate(-106.58632,-217.48633)">
    <path
       style="fill:none;stroke:#000000;stroke-width:3;stroke-linecap:butt;stroke-linejoin:miter;stroke-opacity:1"
       d="m 210.11173,677.59559 2.0203,-458.60926"
       id="path4294"
       inkscape:connector-curvature="0" />
    <path
       style="fill:none;stroke:#000000;stroke-width:2;stroke-linecap:butt;stroke-linejoin:miter;stroke-opacity:1"
       d="m 197.96959,491.82905 24.24366,0"
       id="path4316"
       inkscape:connector-curvature="0" />
    <path
       style="fill:none;stroke:#000000;stroke-width:2;stroke-linecap:butt;stroke-linejoin:miter;stroke-opacity:1"
       d="m 198.25386,645.61589 24.24366,0"
       id="path4316-9"
       inkscape:connector-curvature="0" />
    <path
       style="fill:none;stroke:#000000;stroke-width:2;stroke-linecap:butt;stroke-linejoin:miter;stroke-opacity:1"
       d="m 198.15234,409.13867 24.24366,0"
       id="path4316-7"
       inkscape:connector-curvature="0" />
    <path
       style="fill:none;stroke:#000000;stroke-width:2;stroke-linecap:butt;stroke-linejoin:miter;stroke-opacity:1"
       d="m 197.96959,323.73762 24.24366,0"
       id="path4316-0"
       inkscape:connector-curvature="0" />
    <path
       style="fill:none;stroke:#000000;stroke-width:2;stroke-linecap:butt;stroke-linejoin:miter;stroke-opacity:1"
       d="m 197.90868,238.98633 24.24366,0"
       id="path4316-4"
       inkscape:connector-curvature="0" />
    <path
       style="fill:none;stroke:#000000;stroke-width:3;stroke-linecap:butt;stroke-linejoin:miter;stroke-opacity:1"
       d="m 108.08632,574.46865 458.60926,2.0203"
       id="path4294-0"
       inkscape:connector-curvature="0" />
    <path
       style="fill:none;stroke:#000000;stroke-width:2;stroke-linecap:butt;stroke-linejoin:miter;stroke-opacity:1"
       d="m 293.87317,564.34682 0,24.24366"
       id="path4316-5"
       inkscape:connector-curvature="0" />
    <path
       style="fill:none;stroke:#000000;stroke-width:2;stroke-linecap:butt;stroke-linejoin:miter;stroke-opacity:1"
       d="m 130.06602,564.63109 0,24.24366"
       id="path4316-9-8"
       inkscape:connector-curvature="0" />
    <path
       style="fill:none;stroke:#000000;stroke-width:2;stroke-linecap:butt;stroke-linejoin:miter;stroke-opacity:1"
       d="m 374.54324,564.52957 0,24.24366"
       id="path4316-7-6"
       inkscape:connector-curvature="0" />
    <path
       style="fill:none;stroke:#000000;stroke-width:2;stroke-linecap:butt;stroke-linejoin:miter;stroke-opacity:1"
       d="m 461.94429,564.34682 0,24.24366"
       id="path4316-0-1"
       inkscape:connector-curvature="0" />
    <path
       style="fill:none;stroke:#000000;stroke-width:2;stroke-linecap:butt;stroke-linejoin:miter;stroke-opacity:1"
       d="m 546.69558,564.28591 0,24.24366"
       id="path4316-4-6"
       inkscape:connector-curvature="0" />
    <path
       sodipodi:type="arc"
       style="fill:#0000ff;fill-opacity:1;stroke:none"
       id="path4426"
       sodipodi:cx="317.1879"
       sodipodi:cy="163.42795"
       sodipodi:rx="8.0812206"
       sodipodi:ry="8.0812206"
       d="m 325.26912,163.42795 c 0,4.46313 -3.61809,8.08122 -8.08122,8.08122 -4.46314,0 -8.08122,-3.61809 -8.08122,-8.08122 0,-4.46314 3.61808,-8.08122 8.08122,-8.08122 4.46313,0 8.08122,3.61808 8.08122,8.08122 z"
       transform="translate(-105.07617,328.29957)" />
    <path
       sodipodi:type="arc"
       style="fill:#0000ff;fill-opacity:1;stroke:none"
       id="path4426-2"
       sodipodi:cx="317.1879"
       sodipodi:cy="163.42795"
       sodipodi:rx="8.0812206"
       sodipodi:ry="8.0812206"
       d="m 325.26912,163.42795 c 0,4.46313 -3.61809,8.08122 -8.08122,8.08122 -4.46314,0 -8.08122,-3.61809 -8.08122,-8.08122 0,-4.46314 3.61808,-8.08122 8.08122,-8.08122 4.46313,0 8.08122,3.61808 8.08122,8.08122 z"
       transform="translate(145.64471,322.19805)" />
    <path
       sodipodi:type="arc"
       style="fill:#0000ff;fill-opacity:1;stroke:none"
       id="path4426-29"
       sodipodi:cx="317.1879"
       sodipodi:cy="163.42795"
       sodipodi:rx="8.0812206"
       sodipodi:ry="8.0812206"
       d="m 325.26912,163.42795 c 0,4.46313 -3.61809,8.08122 -8.08122,8.08122 -4.46314,0 -8.08122,-3.61809 -8.08122,-8.08122 0,-4.46314 3.61808,-8.08122 8.08122,-8.08122 4.46313,0 8.08122,3.61808 8.08122,8.08122 z"
       transform="translate(-24.243654,411.13208)" />
    <path
       sodipodi:type="arc"
       style="fill:#0000ff;fill-opacity:1;stroke:none"
       id="path4426-5"
       sodipodi:cx="317.1879"
       sodipodi:cy="163.42795"
       sodipodi:rx="8.0812206"
       sodipodi:ry="8.0812206"
       d="m 325.26912,163.42795 c 0,4.46313 -3.61809,8.08122 -8.08122,8.08122 -4.46314,0 -8.08122,-3.61809 -8.08122,-8.08122 0,-4.46314 3.61808,-8.08122 8.08122,-8.08122 4.46313,0 8.08122,3.61808 8.08122,8.08122 z"
       transform="translate(60.548239,411.09147)" />
    <path
       sodipodi:type="arc"
       style="fill:#0000ff;fill-opacity:1;stroke:none"
       id="path4426-2-8"
       sodipodi:cx="317.1879"
       sodipodi:cy="163.42795"
       sodipodi:rx="8.0812206"
       sodipodi:ry="8.0812206"
       d="m 325.26912,163.42795 c 0,4.46313 -3.61809,8.08122 -8.08122,8.08122 -4.46314,0 -8.08122,-3.61809 -8.08122,-8.08122 0,-4.46314 3.61808,-8.08122 8.08122,-8.08122 4.46313,0 8.08122,3.61808 8.08122,8.08122 z"
       transform="translate(-187.92898,156.75128)" />
    <path
       style="fill:none;stroke:#800080;stroke-width:1.98683488;stroke-linecap:butt;stroke-linejoin:miter;stroke-opacity:1"
       d="m 125.42935,320.81666 c 73.91235,184.9377 144.5307,272.89966 212.15669,272.76591"
       id="path4642"
       inkscape:connector-curvature="0"
       sodipodi:nodetypes="cc" />
    <path
       style="fill:none;stroke:#800080;stroke-width:1.98683488;stroke-linecap:butt;stroke-linejoin:miter;stroke-opacity:1"
       d="M 540.48455,320.00946 C 466.5722,504.94716 395.95385,592.90912 328.32786,592.77537"
       id="path4642-8"
       inkscape:connector-curvature="0"
       sodipodi:nodetypes="cc" />
  </g>
</svg>
