<?xml version="1.0" encoding="UTF-8" standalone="no"?>
<!-- Created with Inkscape (http://www.inkscape.org/) -->

<svg
   xmlns:dc="http://purl.org/dc/elements/1.1/"
   xmlns:cc="http://creativecommons.org/ns#"
   xmlns:rdf="http://www.w3.org/1999/02/22-rdf-syntax-ns#"
   xmlns:svg="http://www.w3.org/2000/svg"
   xmlns="http://www.w3.org/2000/svg"
   xmlns:sodipodi="http://sodipodi.sourceforge.net/DTD/sodipodi-0.dtd"
   xmlns:inkscape="http://www.inkscape.org/namespaces/inkscape"
   width="461.60925"
   height="538.9184"
   id="svg4286"
   version="1.1"
   inkscape:version="0.48.4 r9939"
   sodipodi:docname="twolinesum.svg"
   inkscape:export-filename="/home/vub/Work/ethereum/docs/diagrams/twolinesum.png"
   inkscape:export-xdpi="90"
   inkscape:export-ydpi="90">
  <defs
     id="defs4288" />
  <sodipodi:namedview
     id="base"
     pagecolor="#ffffff"
     bordercolor="#666666"
     borderopacity="1.0"
     inkscape:pageopacity="0.0"
     inkscape:pageshadow="2"
     inkscape:zoom="0.49497475"
     inkscape:cx="284.57612"
     inkscape:cy="300.44777"
     inkscape:document-units="px"
     inkscape:current-layer="layer1"
     showgrid="false"
     fit-margin-top="0"
     fit-margin-left="0"
     fit-margin-right="0"
     fit-margin-bottom="0"
     inkscape:window-width="1600"
     inkscape:window-height="824"
     inkscape:window-x="0"
     inkscape:window-y="24"
     inkscape:window-maximized="1" />
  <metadata
     id="metadata4291">
    <rdf:RDF>
      <cc:Work
         rdf:about="">
        <dc:format>image/svg+xml</dc:format>
        <dc:type
           rdf:resource="http://purl.org/dc/dcmitype/StillImage" />
        <dc:title />
      </cc:Work>
    </rdf:RDF>
  </metadata>
  <g
     inkscape:label="Layer 1"
     inkscape:groupmode="layer"
     id="layer1"
     transform="translate(-90.42388,34.579225)">
    <path
       style="fill:none;stroke:#000000;stroke-width:3.13594174;stroke-linecap:butt;stroke-linejoin:miter;stroke-opacity:1"
       d="m 194.01726,502.77123 1.88436,-537.265214"
       id="path4294"
       inkscape:connector-curvature="0" />
    <path
       style="fill:none;stroke:#000000;stroke-width:2;stroke-linecap:butt;stroke-linejoin:miter;stroke-opacity:1"
       d="m 181.80715,317.07266 24.24366,0"
       id="path4316"
       inkscape:connector-curvature="0" />
    <path
       style="fill:none;stroke:#000000;stroke-width:2;stroke-linecap:butt;stroke-linejoin:miter;stroke-opacity:1"
       d="m 182.09142,470.8595 24.24366,0"
       id="path4316-9"
       inkscape:connector-curvature="0" />
    <path
       style="fill:none;stroke:#000000;stroke-width:2;stroke-linecap:butt;stroke-linejoin:miter;stroke-opacity:1"
       d="m 181.9899,234.38228 24.24366,0"
       id="path4316-7"
       inkscape:connector-curvature="0" />
    <path
       style="fill:none;stroke:#000000;stroke-width:2;stroke-linecap:butt;stroke-linejoin:miter;stroke-opacity:1"
       d="m 181.80715,148.98123 24.24366,0"
       id="path4316-0"
       inkscape:connector-curvature="0" />
    <path
       style="fill:none;stroke:#000000;stroke-width:2;stroke-linecap:butt;stroke-linejoin:miter;stroke-opacity:1"
       d="m 181.74624,64.229943 24.24366,0"
       id="path4316-4"
       inkscape:connector-curvature="0" />
    <path
       style="fill:none;stroke:#000000;stroke-width:3;stroke-linecap:butt;stroke-linejoin:miter;stroke-opacity:1"
       d="m 91.92388,401.73257 458.60926,2.0203"
       id="path4294-0"
       inkscape:connector-curvature="0" />
    <path
       style="fill:none;stroke:#000000;stroke-width:2;stroke-linecap:butt;stroke-linejoin:miter;stroke-opacity:1"
       d="m 277.71073,389.59043 0,24.24366"
       id="path4316-5"
       inkscape:connector-curvature="0" />
    <path
       style="fill:none;stroke:#000000;stroke-width:2;stroke-linecap:butt;stroke-linejoin:miter;stroke-opacity:1"
       d="m 113.90358,389.8747 0,24.24366"
       id="path4316-9-8"
       inkscape:connector-curvature="0" />
    <path
       style="fill:none;stroke:#000000;stroke-width:2;stroke-linecap:butt;stroke-linejoin:miter;stroke-opacity:1"
       d="m 358.3808,389.77318 0,24.24366"
       id="path4316-7-6"
       inkscape:connector-curvature="0" />
    <path
       style="fill:none;stroke:#000000;stroke-width:2;stroke-linecap:butt;stroke-linejoin:miter;stroke-opacity:1"
       d="m 445.78185,389.59043 0,24.24366"
       id="path4316-0-1"
       inkscape:connector-curvature="0" />
    <path
       style="fill:none;stroke:#000000;stroke-width:2;stroke-linecap:butt;stroke-linejoin:miter;stroke-opacity:1"
       d="m 530.53314,389.52952 0,24.24366"
       id="path4316-4-6"
       inkscape:connector-curvature="0" />
    <path
       style="fill:#800080;stroke:#800080;stroke-width:3.01462579;stroke-linecap:butt;stroke-linejoin:miter;stroke-opacity:1"
       d="M 115.14743,66.443339 537.41111,498.80855"
       id="path4424"
       inkscape:connector-curvature="0" />
    <path
       sodipodi:type="arc"
       style="fill:#0000ff;fill-opacity:1;stroke:none"
       id="path4426"
       sodipodi:cx="317.1879"
       sodipodi:cy="163.42795"
       sodipodi:rx="8.0812206"
       sodipodi:ry="8.0812206"
       d="m 325.26912,163.42795 c 0,4.46313 -3.61809,8.08122 -8.08122,8.08122 -4.46314,0 -8.08122,-3.61809 -8.08122,-8.08122 0,-4.46314 3.61808,-8.08122 8.08122,-8.08122 4.46313,0 8.08122,3.61808 8.08122,8.08122 z"
       transform="translate(-121.23861,-14.142136)" />
    <path
       sodipodi:type="arc"
       style="fill:#0000ff;fill-opacity:1;stroke:none"
       id="path4426-2"
       sodipodi:cx="317.1879"
       sodipodi:cy="163.42795"
       sodipodi:rx="8.0812206"
       sodipodi:ry="8.0812206"
       d="m 325.26912,163.42795 c 0,4.46313 -3.61809,8.08122 -8.08122,8.08122 -4.46314,0 -8.08122,-3.61809 -8.08122,-8.08122 0,-4.46314 3.61808,-8.08122 8.08122,-8.08122 4.46313,0 8.08122,3.61808 8.08122,8.08122 z"
       transform="translate(127.27922,240.4163)" />
    <path
       sodipodi:type="arc"
       style="fill:#0000ff;fill-opacity:1;stroke:none"
       id="path4426-29"
       sodipodi:cx="317.1879"
       sodipodi:cy="163.42795"
       sodipodi:rx="8.0812206"
       sodipodi:ry="8.0812206"
       d="m 325.26912,163.42795 c 0,4.46313 -3.61809,8.08122 -8.08122,8.08122 -4.46314,0 -8.08122,-3.61809 -8.08122,-8.08122 0,-4.46314 3.61808,-8.08122 8.08122,-8.08122 4.46313,0 8.08122,3.61808 8.08122,8.08122 z"
       transform="translate(-38.385794,72.730979)" />
    <path
       sodipodi:type="arc"
       style="fill:#0000ff;fill-opacity:1;stroke:none"
       id="path4426-5"
       sodipodi:cx="317.1879"
       sodipodi:cy="163.42795"
       sodipodi:rx="8.0812206"
       sodipodi:ry="8.0812206"
       d="m 325.26912,163.42795 c 0,4.46313 -3.61809,8.08122 -8.08122,8.08122 -4.46314,0 -8.08122,-3.61809 -8.08122,-8.08122 0,-4.46314 3.61808,-8.08122 8.08122,-8.08122 4.46313,0 8.08122,3.61808 8.08122,8.08122 z"
       transform="translate(40.365494,153.54318)" />
    <path
       style="fill:#800080;stroke:#800080;stroke-width:3;stroke-linecap:butt;stroke-linejoin:miter;stroke-opacity:1"
       d="M 112.79368,316.3003 528.68361,233.76885"
       id="path4424-0"
       inkscape:connector-curvature="0" />
    <path
       sodipodi:type="arc"
       style="fill:#0000ff;fill-opacity:1;stroke:none"
       id="path4426-1"
       sodipodi:cx="317.1879"
       sodipodi:cy="163.42795"
       sodipodi:rx="8.0812206"
       sodipodi:ry="8.0812206"
       d="m 325.26912,163.42795 c 0,4.46313 -3.61809,8.08122 -8.08122,8.08122 -4.46314,0 -8.08122,-3.61809 -8.08122,-8.08122 0,-4.46314 3.61808,-8.08122 8.08122,-8.08122 4.46313,0 8.08122,3.61808 8.08122,8.08122 z"
       transform="translate(-121.72846,136.86044)" />
    <path
       sodipodi:type="arc"
       style="fill:#0000ff;fill-opacity:1;stroke:none"
       id="path4426-8"
       sodipodi:cx="317.1879"
       sodipodi:cy="163.42795"
       sodipodi:rx="8.0812206"
       sodipodi:ry="8.0812206"
       d="m 325.26912,163.42795 c 0,4.46313 -3.61809,8.08122 -8.08122,8.08122 -4.46314,0 -8.08122,-3.61809 -8.08122,-8.08122 0,-4.46314 3.61808,-8.08122 8.08122,-8.08122 4.46313,0 8.08122,3.61808 8.08122,8.08122 z"
       transform="translate(-38.875645,120.73861)" />
    <path
       sodipodi:type="arc"
       style="fill:#0000ff;fill-opacity:1;stroke:none"
       id="path4426-5-9"
       sodipodi:cx="317.1879"
       sodipodi:cy="163.42795"
       sodipodi:rx="8.0812206"
       sodipodi:ry="8.0812206"
       d="m 325.26912,163.42795 c 0,4.46313 -3.61809,8.08122 -8.08122,8.08122 -4.46314,0 -8.08122,-3.61809 -8.08122,-8.08122 0,-4.46314 3.61808,-8.08122 8.08122,-8.08122 4.46313,0 8.08122,3.61808 8.08122,8.08122 z"
       transform="translate(39.936558,105.1041)" />
    <path
       sodipodi:type="arc"
       style="fill:#0000ff;fill-opacity:1;stroke:none"
       id="path4426-2-7"
       sodipodi:cx="317.1879"
       sodipodi:cy="163.42795"
       sodipodi:rx="8.0812206"
       sodipodi:ry="8.0812206"
       d="m 325.26912,163.42795 c 0,4.46313 -3.61809,8.08122 -8.08122,8.08122 -4.46314,0 -8.08122,-3.61809 -8.08122,-8.08122 0,-4.46314 3.61808,-8.08122 8.08122,-8.08122 4.46313,0 8.08122,3.61808 8.08122,8.08122 z"
       transform="translate(124.76907,90.393423)" />
    <path
       style="fill:#800080;stroke:#800080;stroke-width:2.69326878;stroke-linecap:butt;stroke-linejoin:miter;stroke-opacity:1"
       d="M 111.46644,-33.232591 527.99056,316.62146"
       id="path4424-04"
       inkscape:connector-curvature="0" />
    <path
       sodipodi:type="arc"
       style="fill:#ff0000;fill-opacity:1;stroke:none"
       id="path4426-5-5"
       sodipodi:cx="317.1879"
       sodipodi:cy="163.42795"
       sodipodi:rx="8.0812206"
       sodipodi:ry="8.0812206"
       d="m 325.26912,163.42795 c 0,4.46313 -3.61809,8.08122 -8.08122,8.08122 -4.46314,0 -8.08122,-3.61809 -8.08122,-8.08122 0,-4.46314 3.61808,-8.08122 8.08122,-8.08122 4.46313,0 8.08122,3.61808 8.08122,8.08122 z"
       transform="matrix(1.5,0,0,1.375,-118.65738,-52.73472)" />
    <path
       sodipodi:type="arc"
       style="fill:#ff0000;fill-opacity:1;stroke:none"
       id="path4426-5-5-5"
       sodipodi:cx="317.1879"
       sodipodi:cy="163.42795"
       sodipodi:rx="8.0812206"
       sodipodi:ry="8.0812206"
       d="m 325.26912,163.42795 c 0,4.46313 -3.61809,8.08122 -8.08122,8.08122 -4.46314,0 -8.08122,-3.61809 -8.08122,-8.08122 0,-4.46314 3.61808,-8.08122 8.08122,-8.08122 4.46313,0 8.08122,3.61808 8.08122,8.08122 z"
       transform="matrix(1.5,0,0,1.375,-197.46959,-114.33372)" />
  </g>
</svg>
