<?xml version="1.0" encoding="UTF-8" standalone="no"?>
<!-- Created with Inkscape (http://www.inkscape.org/) -->

<svg
   xmlns:dc="http://purl.org/dc/elements/1.1/"
   xmlns:cc="http://creativecommons.org/ns#"
   xmlns:rdf="http://www.w3.org/1999/02/22-rdf-syntax-ns#"
   xmlns:svg="http://www.w3.org/2000/svg"
   xmlns="http://www.w3.org/2000/svg"
   xmlns:sodipodi="http://sodipodi.sourceforge.net/DTD/sodipodi-0.dtd"
   xmlns:inkscape="http://www.inkscape.org/namespaces/inkscape"
   width="900.63489"
   height="328.90143"
   id="svg2"
   version="1.1"
   inkscape:version="0.48.4 r9939"
   sodipodi:docname="chain_selection5.svg"
   inkscape:export-filename="/home/vub/chain_selection3.png"
   inkscape:export-xdpi="90"
   inkscape:export-ydpi="90">
  <defs
     id="defs4" />
  <sodipodi:namedview
     id="base"
     pagecolor="#ffffff"
     bordercolor="#666666"
     borderopacity="1.0"
     inkscape:pageopacity="0.0"
     inkscape:pageshadow="2"
     inkscape:zoom="0.7"
     inkscape:cx="711.57143"
     inkscape:cy="175.79556"
     inkscape:document-units="px"
     inkscape:current-layer="layer1"
     showgrid="false"
     fit-margin-top="0"
     fit-margin-left="0"
     fit-margin-right="0"
     fit-margin-bottom="0"
     inkscape:window-width="1600"
     inkscape:window-height="824"
     inkscape:window-x="0"
     inkscape:window-y="24"
     inkscape:window-maximized="1" />
  <metadata
     id="metadata7">
    <rdf:RDF>
      <cc:Work
         rdf:about="">
        <dc:format>image/svg+xml</dc:format>
        <dc:type
           rdf:resource="http://purl.org/dc/dcmitype/StillImage" />
        <dc:title></dc:title>
      </cc:Work>
    </rdf:RDF>
  </metadata>
  <g
     inkscape:label="Layer 1"
     inkscape:groupmode="layer"
     id="layer1"
     transform="translate(336.57144,-560.63481)">
    <path
       sodipodi:type="arc"
       style="fill:none;stroke:#000000;stroke-width:3;stroke-opacity:1"
       id="path2985-0"
       sodipodi:cx="214.28572"
       sodipodi:cy="394.09448"
       sodipodi:rx="42.857143"
       sodipodi:ry="42.857143"
       d="m 257.14286,394.09448 c 0,23.66935 -19.18779,42.85715 -42.85714,42.85715 -23.66935,0 -42.85714,-19.1878 -42.85714,-42.85715 0,-23.66934 19.18779,-42.85714 42.85714,-42.85714 23.66935,0 42.85714,19.1878 42.85714,42.85714 z"
       transform="translate(-413.64287,329.95902)" />
    <path
       style="fill:none;stroke:#000000;stroke-width:3;stroke-linecap:butt;stroke-linejoin:miter;stroke-opacity:1"
       d="m -335.07144,722.05351 91.42858,0"
       id="path3773-88-4"
       inkscape:connector-curvature="0" />
    <path
       sodipodi:type="arc"
       style="fill:none;stroke:#000000;stroke-width:3;stroke-opacity:1"
       id="path2985-5-7-3-3-3"
       sodipodi:cx="214.28572"
       sodipodi:cy="394.09448"
       sodipodi:rx="42.857143"
       sodipodi:ry="42.857143"
       d="m 257.14286,394.09448 c 0,23.66935 -19.18779,42.85715 -42.85714,42.85715 -23.66935,0 -42.85714,-19.1878 -42.85714,-42.85715 0,-23.66934 19.18779,-42.85714 42.85714,-42.85714 23.66935,0 42.85714,19.1878 42.85714,42.85714 z"
       transform="matrix(0.56926051,-0.82215721,-0.82215721,-0.56926051,180.88035,1005.5725)" />
    <path
       sodipodi:type="arc"
       style="fill:none;stroke:#000000;stroke-width:3;stroke-opacity:1"
       id="path2985-5-7-3-3-9"
       sodipodi:cx="214.28572"
       sodipodi:cy="394.09448"
       sodipodi:rx="42.857143"
       sodipodi:ry="42.857143"
       d="m 257.14286,394.09448 c 0,23.66935 -19.18779,42.85715 -42.85714,42.85715 -23.66935,0 -42.85714,-19.1878 -42.85714,-42.85715 0,-23.66934 19.18779,-42.85714 42.85714,-42.85714 23.66935,0 42.85714,19.1878 42.85714,42.85714 z"
       transform="matrix(0.56926051,-0.82215721,-0.82215721,-0.56926051,180.88035,1245.5725)" />
    <path
       style="fill:none;stroke:#000000;stroke-width:3;stroke-linecap:butt;stroke-linejoin:miter;stroke-opacity:1"
       d="M -56.446654,629.22487 -159.55337,706.88213"
       id="path3773-2-6-0-5-1-1"
       inkscape:connector-curvature="0" />
    <path
       style="fill:none;stroke:#000000;stroke-width:3;stroke-linecap:butt;stroke-linejoin:miter;stroke-opacity:1"
       d="M -60.732366,821.88213 -163.83909,744.22487"
       id="path3773-2-6-0-5-1-1-4"
       inkscape:connector-curvature="0" />
    <path
       style="fill:none;stroke:#000000;stroke-width:3;stroke-linecap:butt;stroke-linejoin:miter;stroke-opacity:1"
       d="m 21.999985,600.48206 91.428565,0"
       id="path3773-28-6"
       inkscape:connector-curvature="0" />
    <path
       style="fill:none;stroke:#000000;stroke-width:3;stroke-linecap:butt;stroke-linejoin:miter;stroke-opacity:1"
       d="m 22.428556,843.19635 91.428574,0"
       id="path3773-28-6-4"
       inkscape:connector-curvature="0" />
    <path
       sodipodi:type="arc"
       style="fill:none;stroke:#000000;stroke-width:3;stroke-opacity:1"
       id="path2985-5-7-3-3-3-5"
       sodipodi:cx="214.28572"
       sodipodi:cy="394.09448"
       sodipodi:rx="42.857143"
       sodipodi:ry="42.857143"
       d="m 257.14286,394.09448 c 0,23.66935 -19.18779,42.85715 -42.85714,42.85715 -23.66935,0 -42.85714,-19.1878 -42.85714,-42.85715 0,-23.66934 19.18779,-42.85714 42.85714,-42.85714 23.66935,0 42.85714,19.1878 42.85714,42.85714 z"
       transform="matrix(0.56926051,-0.82215721,-0.82215721,-0.56926051,360.71767,1005.5148)" />
    <path
       sodipodi:type="arc"
       style="fill:none;stroke:#000000;stroke-width:3;stroke-opacity:1"
       id="path2985-5-7-3-3-9-3"
       sodipodi:cx="214.28572"
       sodipodi:cy="394.09448"
       sodipodi:rx="42.857143"
       sodipodi:ry="42.857143"
       d="m 257.14286,394.09448 c 0,23.66935 -19.18779,42.85715 -42.85714,42.85715 -23.66935,0 -42.85714,-19.1878 -42.85714,-42.85715 0,-23.66934 19.18779,-42.85714 42.85714,-42.85714 23.66935,0 42.85714,19.1878 42.85714,42.85714 z"
       transform="matrix(0.56926051,-0.82215721,-0.82215721,-0.56926051,360.71767,1245.5148)" />
    <path
       style="fill:none;stroke:#000000;stroke-width:3;stroke-linecap:butt;stroke-linejoin:miter;stroke-opacity:1"
       d="m 201.5794,600.66147 91.42856,0"
       id="path3773-28-6-0"
       inkscape:connector-curvature="0" />
    <path
       style="fill:none;stroke:#000000;stroke-width:3;stroke-linecap:butt;stroke-linejoin:miter;stroke-opacity:1"
       d="m 202.00797,843.37576 91.42857,0"
       id="path3773-28-6-4-0"
       inkscape:connector-curvature="0" />
    <path
       sodipodi:type="arc"
       style="fill:none;stroke:#000000;stroke-width:3;stroke-opacity:1"
       id="path2985-5-7-3-3-3-5-4"
       sodipodi:cx="214.28572"
       sodipodi:cy="394.09448"
       sodipodi:rx="42.857143"
       sodipodi:ry="42.857143"
       d="m 257.14286,394.09448 c 0,23.66935 -19.18779,42.85715 -42.85714,42.85715 -23.66935,0 -42.85714,-19.1878 -42.85714,-42.85715 0,-23.66934 19.18779,-42.85714 42.85714,-42.85714 23.66935,0 42.85714,19.1878 42.85714,42.85714 z"
       transform="matrix(0.56926051,-0.82215721,-0.82215721,-0.56926051,540.29708,1005.6942)" />
    <path
       sodipodi:type="arc"
       style="fill:none;stroke:#000000;stroke-width:3;stroke-opacity:1"
       id="path2985-5-7-3-3-9-3-9"
       sodipodi:cx="214.28572"
       sodipodi:cy="394.09448"
       sodipodi:rx="42.857143"
       sodipodi:ry="42.857143"
       d="m 257.14286,394.09448 c 0,23.66935 -19.18779,42.85715 -42.85714,42.85715 -23.66935,0 -42.85714,-19.1878 -42.85714,-42.85715 0,-23.66934 19.18779,-42.85714 42.85714,-42.85714 23.66935,0 42.85714,19.1878 42.85714,42.85714 z"
       transform="matrix(0.56926051,-0.82215721,-0.82215721,-0.56926051,540.29708,1245.6942)" />
    <path
       style="fill:none;stroke:#000000;stroke-width:3;stroke-linecap:butt;stroke-linejoin:miter;stroke-opacity:1"
       d="m 383.00797,600.66147 91.42856,0"
       id="path3773-28-6-6"
       inkscape:connector-curvature="0" />
    <path
       style="fill:none;stroke:#000000;stroke-width:3;stroke-linecap:butt;stroke-linejoin:miter;stroke-opacity:1"
       d="m 383.43654,843.37576 91.42857,0"
       id="path3773-28-6-4-6"
       inkscape:connector-curvature="0" />
    <path
       sodipodi:type="arc"
       style="fill:none;stroke:#000000;stroke-width:3;stroke-opacity:1"
       id="path2985-5-7-3-3-3-5-2"
       sodipodi:cx="214.28572"
       sodipodi:cy="394.09448"
       sodipodi:rx="42.857143"
       sodipodi:ry="42.857143"
       d="m 257.14286,394.09448 c 0,23.66935 -19.18779,42.85715 -42.85714,42.85715 -23.66935,0 -42.85714,-19.1878 -42.85714,-42.85715 0,-23.66934 19.18779,-42.85714 42.85714,-42.85714 23.66935,0 42.85714,19.1878 42.85714,42.85714 z"
       transform="matrix(0.56926051,-0.82215721,-0.82215721,-0.56926051,721.72565,1005.6942)" />
    <path
       sodipodi:type="arc"
       style="fill:none;stroke:#000000;stroke-width:3;stroke-opacity:1"
       id="path2985-5-7-3-3-9-3-1"
       sodipodi:cx="214.28572"
       sodipodi:cy="394.09448"
       sodipodi:rx="42.857143"
       sodipodi:ry="42.857143"
       d="m 257.14286,394.09448 c 0,23.66935 -19.18779,42.85715 -42.85714,42.85715 -23.66935,0 -42.85714,-19.1878 -42.85714,-42.85715 0,-23.66934 19.18779,-42.85714 42.85714,-42.85714 23.66935,0 42.85714,19.1878 42.85714,42.85714 z"
       transform="matrix(0.56926051,-0.82215721,-0.82215721,-0.56926051,721.72565,1245.6942)" />
    <path
       style="fill:none;stroke:#999999;stroke-width:2.97076535;stroke-linecap:butt;stroke-linejoin:miter;stroke-opacity:1"
       d="M 483.91273,821.50612 198.65866,624.55864"
       id="path3773-2-6-0-5-1-1-4-9"
       inkscape:connector-curvature="0" />
    <path
       style="fill:none;stroke:#999999;stroke-width:2.97076535;stroke-linecap:butt;stroke-linejoin:miter;stroke-opacity:1"
       d="M 481.76993,622.41579 196.51581,819.36327"
       id="path3773-2-6-0-5-1-1-4-9-1"
       inkscape:connector-curvature="0" />
    <flowRoot
       xml:space="preserve"
       id="flowRoot5700"
       style="font-size:40px;font-style:normal;font-weight:normal;line-height:125%;letter-spacing:0px;word-spacing:0px;fill:#000000;fill-opacity:1;stroke:none;font-family:Sans"
       transform="translate(-338.00001,445.27521)"><flowRegion
         id="flowRegion5702"><rect
           id="rect5704"
           width="131.42856"
           height="55.714294"
           x="280"
           y="142.75717" /></flowRegion><flowPara
         id="flowPara5706"
         style="font-size:23px">x -&gt; A</flowPara></flowRoot>    <flowRoot
       xml:space="preserve"
       id="flowRoot5700-6"
       style="font-size:40px;font-style:normal;font-weight:normal;line-height:125%;letter-spacing:0px;word-spacing:0px;fill:#000000;fill-opacity:1;stroke:none;font-family:Sans"
       transform="translate(-336.87888,686.45498)"><flowRegion
         id="flowRegion5702-7"><rect
           id="rect5704-3"
           width="131.42856"
           height="55.714294"
           x="280"
           y="142.75717" /></flowRegion><flowPara
         id="flowPara5706-2"
         style="font-size:23px">x -&gt; B</flowPara></flowRoot>  </g>
</svg>
