<?xml version="1.0" encoding="UTF-8" standalone="no"?>
<!-- Created with Inkscape (http://www.inkscape.org/) -->

<svg
   xmlns:dc="http://purl.org/dc/elements/1.1/"
   xmlns:cc="http://creativecommons.org/ns#"
   xmlns:rdf="http://www.w3.org/1999/02/22-rdf-syntax-ns#"
   xmlns:svg="http://www.w3.org/2000/svg"
   xmlns="http://www.w3.org/2000/svg"
   xmlns:sodipodi="http://sodipodi.sourceforge.net/DTD/sodipodi-0.dtd"
   xmlns:inkscape="http://www.inkscape.org/namespaces/inkscape"
   width="707.99872"
   height="707.99872"
   id="svg2"
   version="1.1"
   inkscape:version="0.48.4 r9939"
   sodipodi:docname="New document 1">
  <defs
     id="defs4" />
  <sodipodi:namedview
     id="base"
     pagecolor="#ffffff"
     bordercolor="#666666"
     borderopacity="1.0"
     inkscape:pageopacity="0.0"
     inkscape:pageshadow="2"
     inkscape:zoom="0.35"
     inkscape:cx="394.71364"
     inkscape:cy="307.42793"
     inkscape:document-units="px"
     inkscape:current-layer="layer1"
     showgrid="false"
     fit-margin-top="0"
     fit-margin-left="0"
     fit-margin-right="0"
     fit-margin-bottom="0"
     inkscape:window-width="1600"
     inkscape:window-height="824"
     inkscape:window-x="0"
     inkscape:window-y="24"
     inkscape:window-maximized="1" />
  <metadata
     id="metadata7">
    <rdf:RDF>
      <cc:Work
         rdf:about="">
        <dc:format>image/svg+xml</dc:format>
        <dc:type
           rdf:resource="http://purl.org/dc/dcmitype/StillImage" />
        <dc:title></dc:title>
      </cc:Work>
    </rdf:RDF>
  </metadata>
  <g
     inkscape:label="Layer 1"
     inkscape:groupmode="layer"
     id="layer1"
     transform="translate(19.713644,-131.7914)">
    <g
       id="g3137">
      <path
         d="m 391.42857,483.79074 c 0,29.98117 -24.30455,54.28571 -54.28572,54.28571 -29.98117,0 -54.28571,-24.30454 -54.28571,-54.28571 0,-29.98117 24.30454,-54.28571 54.28571,-54.28571 29.98117,0 54.28572,24.30454 54.28572,54.28571 z"
         sodipodi:ry="54.285713"
         sodipodi:rx="54.285713"
         sodipodi:cy="483.79074"
         sodipodi:cx="337.14285"
         id="path2985"
         style="fill:none;stroke:#000000;stroke-width:3;stroke-linecap:butt;stroke-linejoin:miter;stroke-opacity:1"
         sodipodi:type="arc" />
      <path
         inkscape:connector-curvature="0"
         id="path3044"
         d="m 339.67487,205.46562 0.0788,225.79313"
         style="fill:none;stroke:#000000;stroke-width:3;stroke-linecap:butt;stroke-linejoin:miter;stroke-opacity:1" />
      <path
         d="m 391.42857,483.79074 c 0,29.98117 -24.30455,54.28571 -54.28572,54.28571 -29.98117,0 -54.28571,-24.30454 -54.28571,-54.28571 0,-29.98117 24.30454,-54.28571 54.28571,-54.28571 29.98117,0 54.28572,24.30454 54.28572,54.28571 z"
         sodipodi:ry="54.285713"
         sodipodi:rx="54.285713"
         sodipodi:cy="483.79074"
         sodipodi:cx="337.14285"
         id="path2985-0-13-1"
         style="fill:none;stroke:#000000;stroke-width:4.49712086;stroke-linecap:butt;stroke-linejoin:miter;stroke-opacity:1"
         sodipodi:type="arc"
         transform="matrix(0.66709346,0,0,0.66709346,114.52278,-153.2286)" />
      <path
         d="m 391.42857,483.79074 c 0,29.98117 -24.30455,54.28571 -54.28572,54.28571 -29.98117,0 -54.28571,-24.30454 -54.28571,-54.28571 0,-29.98117 24.30454,-54.28571 54.28571,-54.28571 29.98117,0 54.28572,24.30454 54.28572,54.28571 z"
         sodipodi:ry="54.285713"
         sodipodi:rx="54.285713"
         sodipodi:cy="483.79074"
         sodipodi:cx="337.14285"
         id="path2985-0-13-7"
         style="fill:none;stroke:#000000;stroke-width:4.49712086;stroke-linecap:butt;stroke-linejoin:miter;stroke-opacity:1"
         sodipodi:type="arc"
         transform="matrix(0.66709346,0,0,0.66709346,109.37992,479.34283)" />
      <path
         inkscape:connector-curvature="0"
         id="path3044-4"
         d="m 337.10346,542.32276 0.0788,225.79313"
         style="fill:none;stroke:#000000;stroke-width:3;stroke-linecap:butt;stroke-linejoin:miter;stroke-opacity:1" />
    </g>
    <path
       style="fill:none;stroke:#000000;stroke-width:3;stroke-linecap:butt;stroke-linejoin:miter;stroke-opacity:1"
       d="m 614.61085,486.32277 -225.79313,0.0788"
       id="path3044-0"
       inkscape:connector-curvature="0" />
    <path
       transform="matrix(0,0.66709346,-0.66709346,0,973.30507,261.17068)"
       sodipodi:type="arc"
       style="fill:none;stroke:#000000;stroke-width:4.49712086;stroke-linecap:butt;stroke-linejoin:miter;stroke-opacity:1"
       id="path2985-0-13-1-5"
       sodipodi:cx="337.14285"
       sodipodi:cy="483.79074"
       sodipodi:rx="54.285713"
       sodipodi:ry="54.285713"
       d="m 391.42857,483.79074 c 0,29.98117 -24.30455,54.28571 -54.28572,54.28571 -29.98117,0 -54.28571,-24.30454 -54.28571,-54.28571 0,-29.98117 24.30454,-54.28571 54.28571,-54.28571 29.98117,0 54.28572,24.30454 54.28572,54.28571 z" />
    <path
       transform="matrix(0,0.66709346,-0.66709346,0,340.73364,256.02782)"
       sodipodi:type="arc"
       style="fill:none;stroke:#000000;stroke-width:4.49712086;stroke-linecap:butt;stroke-linejoin:miter;stroke-opacity:1"
       id="path2985-0-13-7-2"
       sodipodi:cx="337.14285"
       sodipodi:cy="483.79074"
       sodipodi:rx="54.285713"
       sodipodi:ry="54.285713"
       d="m 391.42857,483.79074 c 0,29.98117 -24.30455,54.28571 -54.28572,54.28571 -29.98117,0 -54.28571,-24.30454 -54.28571,-54.28571 0,-29.98117 24.30454,-54.28571 54.28571,-54.28571 29.98117,0 54.28572,24.30454 54.28572,54.28571 z" />
    <path
       style="fill:none;stroke:#000000;stroke-width:3;stroke-linecap:butt;stroke-linejoin:miter;stroke-opacity:1"
       d="m 277.75371,483.75136 -225.79313,0.0788"
       id="path3044-4-7"
       inkscape:connector-curvature="0" />
    <path
       style="fill:none;stroke:#000000;stroke-width:3;stroke-linecap:butt;stroke-linejoin:miter;stroke-opacity:1"
       d="M 537.6654,290.76565 376.94764,449.36055"
       id="path3044-8"
       inkscape:connector-curvature="0" />
    <path
       transform="matrix(0.4683942,0.47499532,-0.47499532,0.4683942,634.98032,-121.40521)"
       sodipodi:type="arc"
       style="fill:none;stroke:#000000;stroke-width:4.49712086;stroke-linecap:butt;stroke-linejoin:miter;stroke-opacity:1"
       id="path2985-0-13-1-6"
       sodipodi:cx="337.14285"
       sodipodi:cy="483.79074"
       sodipodi:rx="54.285713"
       sodipodi:ry="54.285713"
       d="m 391.42857,483.79074 c 0,29.98117 -24.30455,54.28571 -54.28572,54.28571 -29.98117,0 -54.28571,-24.30454 -54.28571,-54.28571 0,-29.98117 24.30454,-54.28571 54.28571,-54.28571 29.98117,0 54.28572,24.30454 54.28572,54.28571 z" />
    <path
       transform="matrix(0.4683942,0.47499532,-0.47499532,0.4683942,180.95495,319.08773)"
       sodipodi:type="arc"
       style="fill:none;stroke:#000000;stroke-width:4.49712086;stroke-linecap:butt;stroke-linejoin:miter;stroke-opacity:1"
       id="path2985-0-13-7-4"
       sodipodi:cx="337.14285"
       sodipodi:cy="483.79074"
       sodipodi:rx="54.285713"
       sodipodi:ry="54.285713"
       d="m 391.42857,483.79074 c 0,29.98117 -24.30455,54.28571 -54.28572,54.28571 -29.98117,0 -54.28571,-24.30454 -54.28571,-54.28571 0,-29.98117 24.30454,-54.28571 54.28571,-54.28571 29.98117,0 54.28572,24.30454 54.28572,54.28571 z" />
    <path
       style="fill:none;stroke:#000000;stroke-width:3;stroke-linecap:butt;stroke-linejoin:miter;stroke-opacity:1"
       d="M 296.00511,525.45619 135.28735,684.05109"
       id="path3044-4-9"
       inkscape:connector-curvature="0" />
    <path
       style="fill:none;stroke:#000000;stroke-width:3;stroke-linecap:butt;stroke-linejoin:miter;stroke-opacity:1"
       d="M 535.86606,678.61248 375.1483,520.01757"
       id="path3044-8-0"
       inkscape:connector-curvature="0" />
    <path
       transform="matrix(0.4683942,-0.47499532,-0.47499532,-0.4683942,633.18098,1090.7833)"
       sodipodi:type="arc"
       style="fill:none;stroke:#000000;stroke-width:4.49712086;stroke-linecap:butt;stroke-linejoin:miter;stroke-opacity:1"
       id="path2985-0-13-1-6-8"
       sodipodi:cx="337.14285"
       sodipodi:cy="483.79074"
       sodipodi:rx="54.285713"
       sodipodi:ry="54.285713"
       d="m 391.42857,483.79074 c 0,29.98117 -24.30455,54.28571 -54.28572,54.28571 -29.98117,0 -54.28571,-24.30454 -54.28571,-54.28571 0,-29.98117 24.30454,-54.28571 54.28571,-54.28571 29.98117,0 54.28572,24.30454 54.28572,54.28571 z" />
    <path
       transform="matrix(0.4683942,-0.47499532,-0.47499532,-0.4683942,179.15561,650.2904)"
       sodipodi:type="arc"
       style="fill:none;stroke:#000000;stroke-width:4.49712086;stroke-linecap:butt;stroke-linejoin:miter;stroke-opacity:1"
       id="path2985-0-13-7-4-5"
       sodipodi:cx="337.14285"
       sodipodi:cy="483.79074"
       sodipodi:rx="54.285713"
       sodipodi:ry="54.285713"
       d="m 391.42857,483.79074 c 0,29.98117 -24.30455,54.28571 -54.28572,54.28571 -29.98117,0 -54.28571,-24.30454 -54.28571,-54.28571 0,-29.98117 24.30454,-54.28571 54.28571,-54.28571 29.98117,0 54.28572,24.30454 54.28572,54.28571 z" />
    <path
       style="fill:none;stroke:#000000;stroke-width:3;stroke-linecap:butt;stroke-linejoin:miter;stroke-opacity:1"
       d="M 296.20577,445.92194 135.48801,287.32703"
       id="path3044-4-9-2"
       inkscape:connector-curvature="0" />
  </g>
</svg>
