<?xml version="1.0" encoding="UTF-8" standalone="no"?>
<!-- Created with Inkscape (http://www.inkscape.org/) -->

<svg
   xmlns:dc="http://purl.org/dc/elements/1.1/"
   xmlns:cc="http://creativecommons.org/ns#"
   xmlns:rdf="http://www.w3.org/1999/02/22-rdf-syntax-ns#"
   xmlns:svg="http://www.w3.org/2000/svg"
   xmlns="http://www.w3.org/2000/svg"
   xmlns:sodipodi="http://sodipodi.sourceforge.net/DTD/sodipodi-0.dtd"
   xmlns:inkscape="http://www.inkscape.org/namespaces/inkscape"
   width="1432.3572"
   height="535.43481"
   id="svg2"
   version="1.1"
   inkscape:version="0.48.4 r9939"
   sodipodi:docname="where_to_mine.svg"
   inkscape:export-filename="/home/vub/chain_selection.png"
   inkscape:export-xdpi="90"
   inkscape:export-ydpi="90">
  <defs
     id="defs4" />
  <sodipodi:namedview
     id="base"
     pagecolor="#ffffff"
     bordercolor="#666666"
     borderopacity="1.0"
     inkscape:pageopacity="0.0"
     inkscape:pageshadow="2"
     inkscape:zoom="0.7"
     inkscape:cx="714.42858"
     inkscape:cy="374.41778"
     inkscape:document-units="px"
     inkscape:current-layer="layer1"
     showgrid="false"
     fit-margin-top="0"
     fit-margin-left="0"
     fit-margin-right="0"
     fit-margin-bottom="0"
     inkscape:window-width="1600"
     inkscape:window-height="824"
     inkscape:window-x="0"
     inkscape:window-y="24"
     inkscape:window-maximized="1" />
  <metadata
     id="metadata7">
    <rdf:RDF>
      <cc:Work
         rdf:about="">
        <dc:format>image/svg+xml</dc:format>
        <dc:type
           rdf:resource="http://purl.org/dc/dcmitype/StillImage" />
        <dc:title />
      </cc:Work>
    </rdf:RDF>
  </metadata>
  <g
     inkscape:label="Layer 1"
     inkscape:groupmode="layer"
     id="layer1"
     transform="translate(339.42858,-464.76154)">
    <path
       sodipodi:type="arc"
       style="fill:none;stroke:#000000;stroke-width:3;stroke-opacity:1"
       id="path2985"
       sodipodi:cx="214.28572"
       sodipodi:cy="394.09448"
       sodipodi:rx="42.857143"
       sodipodi:ry="42.857143"
       d="m 257.14286,394.09448 c 0,23.66935 -19.18779,42.85715 -42.85714,42.85715 -23.66935,0 -42.85714,-19.1878 -42.85714,-42.85715 0,-23.66934 19.18779,-42.85714 42.85714,-42.85714 23.66935,0 42.85714,19.1878 42.85714,42.85714 z"
       transform="translate(-54.285714,262.55341)" />
    <path
       sodipodi:type="arc"
       style="fill:none;stroke:#000000;stroke-width:3;stroke-opacity:1"
       id="path2985-5"
       sodipodi:cx="214.28572"
       sodipodi:cy="394.09448"
       sodipodi:rx="42.857143"
       sodipodi:ry="42.857143"
       d="m 257.14286,394.09448 c 0,23.66935 -19.18779,42.85715 -42.85714,42.85715 -23.66935,0 -42.85714,-19.1878 -42.85714,-42.85715 0,-23.66934 19.18779,-42.85714 42.85714,-42.85714 23.66935,0 42.85714,19.1878 42.85714,42.85714 z"
       transform="translate(122.85714,262.2677)" />
    <path
       style="fill:none;stroke:#000000;stroke-width:3;stroke-linecap:butt;stroke-linejoin:miter;stroke-opacity:1"
       d="m 202.85714,346.95163 91.42857,0"
       id="path3773"
       inkscape:connector-curvature="0"
       transform="translate(0,308.2677)" />
    <path
       sodipodi:type="arc"
       style="fill:none;stroke:#000000;stroke-width:3;stroke-opacity:1"
       id="path2985-5-2"
       sodipodi:cx="214.28572"
       sodipodi:cy="394.09448"
       sodipodi:rx="42.857143"
       sodipodi:ry="42.857143"
       d="m 257.14286,394.09448 c 0,23.66935 -19.18779,42.85715 -42.85714,42.85715 -23.66935,0 -42.85714,-19.1878 -42.85714,-42.85715 0,-23.66934 19.18779,-42.85714 42.85714,-42.85714 23.66935,0 42.85714,19.1878 42.85714,42.85714 z"
       transform="translate(301.42856,262.55342)" />
    <path
       style="fill:none;stroke:#000000;stroke-width:3;stroke-linecap:butt;stroke-linejoin:miter;stroke-opacity:1"
       d="m 381.42856,655.50505 91.42857,0"
       id="path3773-5"
       inkscape:connector-curvature="0" />
    <path
       sodipodi:type="arc"
       style="fill:none;stroke:#000000;stroke-width:3;stroke-opacity:1"
       id="path2985-5-0"
       sodipodi:cx="214.28572"
       sodipodi:cy="394.09448"
       sodipodi:rx="42.857143"
       sodipodi:ry="42.857143"
       d="m 257.14286,394.09448 c 0,23.66935 -19.18779,42.85715 -42.85714,42.85715 -23.66935,0 -42.85714,-19.1878 -42.85714,-42.85715 0,-23.66934 19.18779,-42.85714 42.85714,-42.85714 23.66935,0 42.85714,19.1878 42.85714,42.85714 z"
       transform="translate(480,259.69628)" />
    <path
       style="fill:none;stroke:#000000;stroke-width:3;stroke-linecap:butt;stroke-linejoin:miter;stroke-opacity:1"
       d="m 560,652.64791 91.42857,0"
       id="path3773-8"
       inkscape:connector-curvature="0" />
    <path
       sodipodi:type="arc"
       style="fill:none;stroke:#000000;stroke-width:3;stroke-opacity:1"
       id="path2985-5-29"
       sodipodi:cx="214.28572"
       sodipodi:cy="394.09448"
       sodipodi:rx="42.857143"
       sodipodi:ry="42.857143"
       d="m 257.14286,394.09448 c 0,23.66935 -19.18779,42.85715 -42.85714,42.85715 -23.66935,0 -42.85714,-19.1878 -42.85714,-42.85715 0,-23.66934 19.18779,-42.85714 42.85714,-42.85714 23.66935,0 42.85714,19.1878 42.85714,42.85714 z"
       transform="translate(657.14285,259.69628)" />
    <path
       style="fill:none;stroke:#000000;stroke-width:3;stroke-linecap:butt;stroke-linejoin:miter;stroke-opacity:1"
       d="m 737.14285,652.64791 91.42857,0"
       id="path3773-3"
       inkscape:connector-curvature="0" />
    <path
       sodipodi:type="arc"
       style="fill:none;stroke:#cccccc;stroke-width:3;stroke-opacity:1"
       id="path2985-5-29-5"
       sodipodi:cx="214.28572"
       sodipodi:cy="394.09448"
       sodipodi:rx="42.857143"
       sodipodi:ry="42.857143"
       d="m 257.14286,394.09448 c 0,23.66935 -19.18779,42.85715 -42.85714,42.85715 -23.66935,0 -42.85714,-19.1878 -42.85714,-42.85715 0,-23.66934 19.18779,-42.85714 42.85714,-42.85714 23.66935,0 42.85714,19.1878 42.85714,42.85714 z"
       transform="translate(834.28571,262.55341)" />
    <path
       style="fill:none;stroke:#cccccc;stroke-width:3;stroke-linecap:butt;stroke-linejoin:miter;stroke-opacity:1"
       d="m 914.28571,655.50504 91.42859,0"
       id="path3773-3-2"
       inkscape:connector-curvature="0" />
    <path
       style="fill:none;stroke:#000000;stroke-width:3;stroke-linecap:butt;stroke-linejoin:miter;stroke-opacity:1"
       d="m 24.285715,654.6479 91.428575,0"
       id="path3773-88"
       inkscape:connector-curvature="0" />
    <path
       sodipodi:type="arc"
       style="fill:none;stroke:#000000;stroke-width:3;stroke-opacity:1"
       id="path2985-6"
       sodipodi:cx="214.28572"
       sodipodi:cy="394.09448"
       sodipodi:rx="42.857143"
       sodipodi:ry="42.857143"
       d="m 257.14286,394.09448 c 0,23.66935 -19.18779,42.85715 -42.85714,42.85715 -23.66935,0 -42.85714,-19.1878 -42.85714,-42.85715 0,-23.66934 19.18779,-42.85714 42.85714,-42.85714 23.66935,0 42.85714,19.1878 42.85714,42.85714 z"
       transform="translate(-235.07143,260.38759)" />
    <path
       style="fill:none;stroke:#000000;stroke-width:3;stroke-linecap:butt;stroke-linejoin:miter;stroke-opacity:1"
       d="m -156.5,652.48208 91.42857,0"
       id="path3773-88-3"
       inkscape:connector-curvature="0" />
    <path
       sodipodi:type="arc"
       style="fill:none;stroke:#000000;stroke-width:3;stroke-opacity:1"
       id="path2985-7"
       sodipodi:cx="214.28572"
       sodipodi:cy="394.09448"
       sodipodi:rx="42.857143"
       sodipodi:ry="42.857143"
       d="m 257.14286,394.09448 c 0,23.66935 -19.18779,42.85715 -42.85714,42.85715 -23.66935,0 -42.85714,-19.1878 -42.85714,-42.85715 0,-23.66934 19.18779,-42.85714 42.85714,-42.85714 23.66935,0 42.85714,19.1878 42.85714,42.85714 z"
       transform="translate(-416.50001,257.53045)" />
    <path
       style="fill:none;stroke:#000000;stroke-width:3;stroke-linecap:butt;stroke-linejoin:miter;stroke-opacity:1"
       d="m -337.92858,649.62494 91.42858,0"
       id="path3773-88-31"
       inkscape:connector-curvature="0" />
    <path
       sodipodi:type="arc"
       style="fill:none;stroke:#000000;stroke-width:3;stroke-opacity:1"
       id="path2985-5-7-3-3"
       sodipodi:cx="214.28572"
       sodipodi:cy="394.09448"
       sodipodi:rx="42.857143"
       sodipodi:ry="42.857143"
       d="m 257.14286,394.09448 a 42.857143,42.857143 0 1 1 -85.71428,0 42.857143,42.857143 0 1 1 85.71428,0 z"
       transform="matrix(0.56926051,0.82215721,-0.82215721,0.56926051,450.6502,407.25303)" />
    <path
       style="fill:none;stroke:#000000;stroke-width:3;stroke-linecap:butt;stroke-linejoin:miter;stroke-opacity:1"
       d="m 173.12303,696.71746 52.04667,75.16866"
       id="path3773-2-6-0"
       inkscape:connector-curvature="0" />
    <path
       sodipodi:type="arc"
       style="fill:none;stroke:#000000;stroke-width:3;stroke-opacity:1"
       id="path2985-5-29-5-4"
       sodipodi:cx="214.28572"
       sodipodi:cy="394.09448"
       sodipodi:rx="42.857143"
       sodipodi:ry="42.857143"
       d="m 257.14286,394.09448 a 42.857143,42.857143 0 1 1 -85.71428,0 42.857143,42.857143 0 1 1 85.71428,0 z"
       transform="matrix(1,0,0,-1,213.73408,1203.484)" />
    <path
       style="fill:none;stroke:#000000;stroke-width:3;stroke-linecap:butt;stroke-linejoin:miter;stroke-opacity:1"
       d="m 293.73408,810.53238 91.42859,0"
       id="path3773-3-2-9"
       inkscape:connector-curvature="0" />
    <path
       sodipodi:type="arc"
       style="fill:none;stroke:#cccccc;stroke-width:3;stroke-opacity:1"
       id="path2985-5-29-5-3"
       sodipodi:cx="214.28572"
       sodipodi:cy="394.09448"
       sodipodi:rx="42.857143"
       sodipodi:ry="42.857143"
       d="m 257.14286,394.09448 a 42.857143,42.857143 0 1 1 -85.71428,0 42.857143,42.857143 0 1 1 85.71428,0 z"
       transform="translate(392,416.10187)" />
    <path
       style="fill:none;stroke:#cccccc;stroke-width:3;stroke-linecap:butt;stroke-linejoin:miter;stroke-opacity:1"
       d="m 471.99999,809.0535 91.42859,0"
       id="path3773-3-2-3"
       inkscape:connector-curvature="0" />
    <flowRoot
       xml:space="preserve"
       id="flowRoot3114"
       style="font-size:40px;font-style:normal;font-weight:normal;line-height:125%;letter-spacing:0px;word-spacing:0px;fill:#000000;fill-opacity:1;stroke:none;font-family:Sans"
       transform="translate(-333.71429,467.61868)"><flowRegion
         id="flowRegion3116"><rect
           id="rect3118"
           width="50"
           height="61.42857"
           x="1367.1428"
           y="162.57767" /></flowRegion><flowPara
         id="flowPara3120"
         style="fill:#999999">?</flowPara></flowRoot>    <flowRoot
       xml:space="preserve"
       id="flowRoot3114-7"
       style="font-size:40px;font-style:normal;font-weight:normal;line-height:125%;letter-spacing:0px;word-spacing:0px;fill:#000000;fill-opacity:1;stroke:none;font-family:Sans"
       transform="translate(-770.95341,621.7505)"><flowRegion
         id="flowRegion3116-3"><rect
           id="rect3118-4"
           width="50"
           height="61.42857"
           x="1367.1428"
           y="162.57767" /></flowRegion><flowPara
         id="flowPara3120-2"
         style="fill:#999999">?</flowPara></flowRoot>  </g>
</svg>
