<?xml version="1.0" encoding="UTF-8" standalone="no"?>
<!-- Created with Inkscape (http://www.inkscape.org/) -->

<svg
   xmlns:dc="http://purl.org/dc/elements/1.1/"
   xmlns:cc="http://creativecommons.org/ns#"
   xmlns:rdf="http://www.w3.org/1999/02/22-rdf-syntax-ns#"
   xmlns:svg="http://www.w3.org/2000/svg"
   xmlns="http://www.w3.org/2000/svg"
   xmlns:sodipodi="http://sodipodi.sourceforge.net/DTD/sodipodi-0.dtd"
   xmlns:inkscape="http://www.inkscape.org/namespaces/inkscape"
   width="1196.2454"
   height="845.55957"
   id="svg6386"
   version="1.1"
   inkscape:version="0.48.4 r9939"
   sodipodi:docname="New document 94">
  <defs
     id="defs6388" />
  <sodipodi:namedview
     id="base"
     pagecolor="#ffffff"
     bordercolor="#666666"
     borderopacity="1.0"
     inkscape:pageopacity="0.0"
     inkscape:pageshadow="2"
     inkscape:zoom="0.35"
     inkscape:cx="773.5932"
     inkscape:cy="315.98814"
     inkscape:document-units="px"
     inkscape:current-layer="layer1"
     showgrid="false"
     fit-margin-top="0"
     fit-margin-left="0"
     fit-margin-right="0"
     fit-margin-bottom="0"
     inkscape:window-width="1600"
     inkscape:window-height="824"
     inkscape:window-x="0"
     inkscape:window-y="24"
     inkscape:window-maximized="1" />
  <metadata
     id="metadata6391">
    <rdf:RDF>
      <cc:Work
         rdf:about="">
        <dc:format>image/svg+xml</dc:format>
        <dc:type
           rdf:resource="http://purl.org/dc/dcmitype/StillImage" />
        <dc:title></dc:title>
      </cc:Work>
    </rdf:RDF>
  </metadata>
  <g
     inkscape:label="Layer 1"
     inkscape:groupmode="layer"
     id="layer1"
     transform="translate(398.5932,-2.7907535)">
    <path
       style="fill:#f9f9f9;fill-opacity:1;stroke:none;stroke-width:3"
       d="m 1022.5541,843.07652 c -21.7094,-8.69266 -62.31747,-67.334 -88.88854,-128.36223 l -14.30566,-32.85714 -0.0262,-65 c -0.0249,-61.70896 0.24561,-65 5.34229,-65 3.94539,0 19.81031,23.10594 59.84855,87.16443 l 54.48007,87.16443 -6.9914,6.99142 c -14.0407,14.04066 -5.1867,32.96543 15.4229,32.96543 13.3246,0 20.4428,-6.79365 20.4428,-19.51068 0,-10.22769 -8.4865,-20.48932 -16.945,-20.48932 -4.1395,0 -19.2328,-21.9294 -60.46892,-87.85714 -30.22384,-48.32143 -54.76291,-89.14286 -54.53125,-90.71429 0.23165,-1.57142 1.23889,-7.08643 2.2383,-12.25556 1.32989,-6.87844 0.45898,-10.89912 -3.2481,-14.9954 -3.6338,-4.0153 -4.33568,-7.10699 -2.48368,-10.94031 1.41983,-2.93882 25.08152,-41.46243 52.58152,-85.60801 34.09073,-54.72559 51.59093,-80.29996 55.00003,-80.37556 4.553,-0.10096 5,3.87426 5,44.4638 l 0,44.57466 -18.4453,19.92265 c -29.6778,32.05472 -38.15601,64.82687 -27.46186,106.1525 11.10586,42.9167 29.40956,76.72292 75.29156,139.06123 35.6158,48.38989 44.9013,66.2128 44.9013,86.1854 0,14.28135 -0.6531,15.55232 -15.2625,29.7026 -15.3637,14.88098 -50.4378,34.47195 -53.3319,29.78912 -0.887,-1.43509 -3.3675,-1.37306 -5.7667,0.14428 -5.2526,3.32172 -13.6012,3.20378 -22.3923,-0.31625 l 0,-6e-5 z"
       id="path6928"
       inkscape:connector-curvature="0"
       transform="translate(-398.5932,2.7907535)" />
    <path
       style="fill:#f9f9f9;fill-opacity:1;stroke:none;stroke-width:3"
       d="M 634.6828,627.62372 C 608.73895,616.71516 599.30748,576.74791 599.30748,477.71559 l 0,-51.50963 26.42857,-42.78091 c 17.51227,-28.34776 28.11544,-42.81727 31.42857,-42.88869 4.64983,-0.10023 5,5.71494 5,83.03162 l 0,83.1394 -8.57142,8.00691 c -10.07898,9.41517 -11.16392,20.26465 -2.85715,28.57143 7.46981,7.46981 25.84602,7.74721 32.41432,0.48931 10.32932,-11.41376 1.98959,-34.77502 -12.41432,-34.77502 -5.58515,0 -5.71428,-1.90477 -5.71428,-84.28572 0,-104.87171 -1.25563,-103.54846 38.2448,-40.30437 l 27.46948,43.98134 0,61.48161 c 0,85.83933 -8.12084,123.41555 -29.47924,136.40436 -10.52859,6.40283 -52.52827,7.25229 -66.57401,1.34649 l 0,0 z"
       id="path6908"
       inkscape:connector-curvature="0"
       transform="translate(-398.5932,2.7907535)" />
    <path
       style="fill:#f9f9f9;fill-opacity:1;stroke:none;stroke-width:3"
       d="m 649.30748,630.01349 c -3.14286,-0.6798 -8.55254,-1.83957 -12.02153,-2.57728 -15.29097,-3.2518 -26.1394,-22.42319 -32.2587,-57.00763 -1.66827,-9.42857 -3.81225,-45.75043 -4.7644,-80.71524 l -1.7312,-63.57238 7.53078,-11.42762 c 4.14192,-6.28519 10.95257,-16.89191 15.13478,-23.57048 13.72386,-21.91562 24.6456,-37.74746 30.70119,-44.50353 l 5.95728,-6.64639 1.86967,6.64639 c 1.02832,3.65551 1.99783,40.84856 2.15447,82.65121 l 0.2848,76.00481 -8.57142,8.96918 c -10.00714,10.47151 -10.89973,19.73028 -2.74585,28.48244 12.46816,13.383 37.03156,5.17844 37.03156,-12.3691 0,-9.73368 -8.65825,-21.37786 -15.89589,-21.37786 -5.75468,0 -6.97359,-15.44588 -6.62321,-83.92858 0.34165,-66.77642 1.70721,-83.41686 6.80851,-82.96688 2.55884,0.22572 27.68516,35.45459 37.5229,52.60974 2.25287,3.92857 8.08326,13.57143 12.95642,21.42857 l 8.8603,14.28572 -1.75498,62.85714 c -0.96523,34.57143 -2.98591,71.00663 -4.49038,80.96712 -3.22088,21.32404 -13.0752,42.42783 -23.09796,49.46608 -7.06994,4.96471 -40.56425,8.95343 -52.85714,6.29457 z"
       id="path6910"
       inkscape:connector-curvature="0"
       transform="translate(-398.5932,2.7907535)" />
    <path
       style="fill:#f9f9f9;fill-opacity:1;stroke:none;stroke-width:3"
       d="M 131.72899,840.39395 C 110.14672,837.29409 92.231583,820.29702 82.934644,794.10011 77.236079,778.04269 73.13505,712.92474 75.325939,673.28572 l 1.737089,-31.42857 27.550802,-44.90008 c 18.38158,-29.95682 29.21485,-44.93333 32.55079,-45 4.65117,-0.093 5,5.78038 5,84.18579 0,74.11765 -0.53268,84.28572 -4.41558,84.28572 -6.94274,0 -18.44156,13.28033 -18.44156,21.2987 0,10.82666 9.4381,18.7013 22.41432,18.7013 13.32459,0 20.44282,-6.79367 20.44282,-19.51069 0,-8.75664 -8.18034,-20.48931 -14.28571,-20.48931 -1.84019,0 -2.85714,-30 -2.85714,-84.28572 0,-105.70781 -1.69562,-104.28027 41.57284,-35 l 30.78101,49.28572 -0.62552,45.71428 c -1.0264,75.01076 -6.14432,97.47767 -27.62027,121.24898 -17.17089,19.00614 -35.12641,26.20139 -57.40084,23.00211 l 0,0 z"
       id="path6898"
       inkscape:connector-curvature="0"
       transform="translate(-398.5932,2.7907535)" />
    <path
       transform="matrix(-0.36439714,0,0,-0.33808135,388.0842,273.82818)"
       sodipodi:type="arc"
       style="fill:#000000;stroke:#000000;stroke-width:8.54718625;stroke-linecap:butt;stroke-linejoin:miter;stroke-opacity:1"
       id="path2985-0-13-7-2-4-2-6"
       sodipodi:cx="337.14285"
       sodipodi:cy="483.79074"
       sodipodi:rx="54.285713"
       sodipodi:ry="54.285713"
       d="m 391.42857,483.79074 c 0,29.98117 -24.30455,54.28571 -54.28572,54.28571 -29.98117,0 -54.28571,-24.30454 -54.28571,-54.28571 0,-29.98117 24.30454,-54.28571 54.28571,-54.28571 29.98117,0 54.28572,24.30454 54.28572,54.28571 z" />
    <path
       style="fill:none;stroke:#000000;stroke-width:3;stroke-linecap:butt;stroke-linejoin:miter;stroke-opacity:1"
       d="m 265.96091,123.46485 -0.0966,182.95386"
       id="path3044-4-7-8-2"
       inkscape:connector-curvature="0" />
    <rect
       style="fill:none;stroke:#000000;stroke-width:6"
       id="rect6475"
       width="523.13092"
       height="157.41667"
       x="17.005949"
       y="3.6538458" />
    <path
       style="fill:none;stroke:#000000;stroke-width:3;stroke-linecap:butt;stroke-linejoin:miter;stroke-opacity:1"
       d="M 257.14286,118.07647 -111.42857,312.36218"
       id="path6477"
       inkscape:connector-curvature="0" />
    <path
       style="fill:none;stroke:#000000;stroke-width:3;stroke-linecap:butt;stroke-linejoin:miter;stroke-opacity:1"
       d="M 278.57141,118.07647 647.14285,312.36218"
       id="path6477-3"
       inkscape:connector-curvature="0" />
    <path
       style="fill:none;stroke:#000000;stroke-width:3;stroke-linecap:butt;stroke-linejoin:miter;stroke-opacity:1"
       d="m -132.05516,331.07646 -0.032,182.95386"
       id="path3044-4-7-8-2-44-5"
       inkscape:connector-curvature="0" />
    <path
       style="fill:none;stroke:#000000;stroke-width:3;stroke-linecap:butt;stroke-linejoin:miter;stroke-opacity:1"
       d="m -134.96906,325.68808 -121.7943,194.28571"
       id="path6477-4-8"
       inkscape:connector-curvature="0" />
    <path
       style="fill:none;stroke:#000000;stroke-width:3;stroke-linecap:butt;stroke-linejoin:miter;stroke-opacity:1"
       d="M -127.88806,325.68808 -6.0937831,519.97379"
       id="path6477-3-4-0"
       inkscape:connector-curvature="0" />
    <path
       transform="matrix(-0.36439714,0,0,0.33808135,-9.4317931,160.04474)"
       sodipodi:type="arc"
       style="fill:#000000;stroke:#000000;stroke-width:8.54718625;stroke-linecap:butt;stroke-linejoin:miter;stroke-opacity:1"
       id="path2985-0-13-7-2-4-2-3-4-1"
       sodipodi:cx="337.14285"
       sodipodi:cy="483.79074"
       sodipodi:rx="54.285713"
       sodipodi:ry="54.285713"
       d="m 391.42857,483.79074 c 0,29.98117 -24.30455,54.28571 -54.28572,54.28571 -29.98117,0 -54.28571,-24.30454 -54.28571,-54.28571 0,-29.98117 24.30454,-54.28571 54.28571,-54.28571 29.98117,0 54.28572,24.30454 54.28572,54.28571 z" />
    <path
       style="fill:none;stroke:#000000;stroke-width:3;stroke-linecap:butt;stroke-linejoin:miter;stroke-opacity:1"
       d="m 265.08769,331.07646 -0.032,182.95386"
       id="path3044-4-7-8-2-44-9"
       inkscape:connector-curvature="0" />
    <path
       style="fill:none;stroke:#000000;stroke-width:3;stroke-linecap:butt;stroke-linejoin:miter;stroke-opacity:1"
       d="M 262.17379,325.68808 140.3795,519.97379"
       id="path6477-4-3"
       inkscape:connector-curvature="0" />
    <path
       style="fill:none;stroke:#000000;stroke-width:3;stroke-linecap:butt;stroke-linejoin:miter;stroke-opacity:1"
       d="M 269.25479,325.68808 391.04907,519.97379"
       id="path6477-3-4-01"
       inkscape:connector-curvature="0" />
    <path
       transform="matrix(-0.36439714,0,0,0.33808135,387.71106,160.04474)"
       sodipodi:type="arc"
       style="fill:#000000;stroke:#000000;stroke-width:8.54718625;stroke-linecap:butt;stroke-linejoin:miter;stroke-opacity:1"
       id="path2985-0-13-7-2-4-2-3-4-6"
       sodipodi:cx="337.14285"
       sodipodi:cy="483.79074"
       sodipodi:rx="54.285713"
       sodipodi:ry="54.285713"
       d="m 391.42857,483.79074 c 0,29.98117 -24.30455,54.28571 -54.28572,54.28571 -29.98117,0 -54.28571,-24.30454 -54.28571,-54.28571 0,-29.98117 24.30454,-54.28571 54.28571,-54.28571 29.98117,0 54.28572,24.30454 54.28572,54.28571 z" />
    <path
       style="fill:none;stroke:#000000;stroke-width:3;stroke-linecap:butt;stroke-linejoin:miter;stroke-opacity:1"
       d="m 647.94484,333.93361 -0.032,182.95386"
       id="path3044-4-7-8-2-44-1"
       inkscape:connector-curvature="0" />
    <path
       style="fill:none;stroke:#000000;stroke-width:3;stroke-linecap:butt;stroke-linejoin:miter;stroke-opacity:1"
       d="M 645.03094,328.54523 523.23664,522.83094"
       id="path6477-4-4"
       inkscape:connector-curvature="0" />
    <path
       style="fill:none;stroke:#000000;stroke-width:3;stroke-linecap:butt;stroke-linejoin:miter;stroke-opacity:1"
       d="M 652.11194,328.54523 773.90622,522.83094"
       id="path6477-3-4-5"
       inkscape:connector-curvature="0" />
    <path
       transform="matrix(-0.36439714,0,0,0.33808135,770.56821,162.90189)"
       sodipodi:type="arc"
       style="fill:#000000;stroke:#000000;stroke-width:8.54718625;stroke-linecap:butt;stroke-linejoin:miter;stroke-opacity:1"
       id="path2985-0-13-7-2-4-2-3-4-4"
       sodipodi:cx="337.14285"
       sodipodi:cy="483.79074"
       sodipodi:rx="54.285713"
       sodipodi:ry="54.285713"
       d="m 391.42857,483.79074 c 0,29.98117 -24.30455,54.28571 -54.28572,54.28571 -29.98117,0 -54.28571,-24.30454 -54.28571,-54.28571 0,-29.98117 24.30454,-54.28571 54.28571,-54.28571 29.98117,0 54.28572,24.30454 54.28572,54.28571 z" />
    <path
       style="fill:none;stroke:#000000;stroke-width:3;stroke-linecap:butt;stroke-linejoin:miter;stroke-opacity:1"
       d="m 519.37341,542.50503 -0.032,182.95386"
       id="path3044-4-7-8-2-44-4"
       inkscape:connector-curvature="0" />
    <path
       style="fill:none;stroke:#000000;stroke-width:3;stroke-linecap:butt;stroke-linejoin:miter;stroke-opacity:1"
       d="M 516.45951,537.11665 394.66521,731.40236"
       id="path6477-4-40"
       inkscape:connector-curvature="0" />
    <path
       style="fill:none;stroke:#000000;stroke-width:3;stroke-linecap:butt;stroke-linejoin:miter;stroke-opacity:1"
       d="M 523.54051,537.11665 645.33479,731.40236"
       id="path6477-3-4-1"
       inkscape:connector-curvature="0" />
    <path
       transform="matrix(-0.36439714,0,0,0.33808135,641.99678,371.47331)"
       sodipodi:type="arc"
       style="fill:#000000;stroke:#000000;stroke-width:8.54718625;stroke-linecap:butt;stroke-linejoin:miter;stroke-opacity:1"
       id="path2985-0-13-7-2-4-2-3-4-9"
       sodipodi:cx="337.14285"
       sodipodi:cy="483.79074"
       sodipodi:rx="54.285713"
       sodipodi:ry="54.285713"
       d="m 391.42857,483.79074 c 0,29.98117 -24.30455,54.28571 -54.28572,54.28571 -29.98117,0 -54.28571,-24.30454 -54.28571,-54.28571 0,-29.98117 24.30454,-54.28571 54.28571,-54.28571 29.98117,0 54.28572,24.30454 54.28572,54.28571 z" />
    <path
       style="fill:none;stroke:#000000;stroke-width:3;stroke-linecap:butt;stroke-linejoin:miter;stroke-opacity:1"
       d="m -254.91231,542.50504 -0.032,182.95386"
       id="path3044-4-7-8-2-44-92"
       inkscape:connector-curvature="0" />
    <path
       style="fill:none;stroke:#000000;stroke-width:3;stroke-linecap:butt;stroke-linejoin:miter;stroke-opacity:1"
       d="M -257.82621,537.11666 -379.6205,731.40237"
       id="path6477-4-9"
       inkscape:connector-curvature="0" />
    <path
       style="fill:none;stroke:#000000;stroke-width:3;stroke-linecap:butt;stroke-linejoin:miter;stroke-opacity:1"
       d="m -250.74521,537.11666 121.79428,194.28571"
       id="path6477-3-4-8"
       inkscape:connector-curvature="0" />
    <path
       transform="matrix(-0.36439714,0,0,0.33808135,-132.28894,371.47332)"
       sodipodi:type="arc"
       style="fill:#000000;stroke:#000000;stroke-width:8.54718625;stroke-linecap:butt;stroke-linejoin:miter;stroke-opacity:1"
       id="path2985-0-13-7-2-4-2-3-4-60"
       sodipodi:cx="337.14285"
       sodipodi:cy="483.79074"
       sodipodi:rx="54.285713"
       sodipodi:ry="54.285713"
       d="m 391.42857,483.79074 c 0,29.98117 -24.30455,54.28571 -54.28572,54.28571 -29.98117,0 -54.28571,-24.30454 -54.28571,-54.28571 0,-29.98117 24.30454,-54.28571 54.28571,-54.28571 29.98117,0 54.28572,24.30454 54.28572,54.28571 z" />
    <path
       transform="matrix(-0.36439714,0,0,0.33808135,-134.28897,580.23013)"
       sodipodi:type="arc"
       style="fill:#ff0000;stroke:#ff0000;stroke-width:8.54718624999999932;stroke-linecap:butt;stroke-linejoin:miter;stroke-opacity:1"
       id="path2985-0-13-7-2-4-2-3-4-60-3"
       sodipodi:cx="337.14285"
       sodipodi:cy="483.79074"
       sodipodi:rx="54.285713"
       sodipodi:ry="54.285713"
       d="m 391.42857,483.79074 c 0,29.98117 -24.30455,54.28571 -54.28572,54.28571 -29.98117,0 -54.28571,-24.30454 -54.28571,-54.28571 0,-29.98117 24.30454,-54.28571 54.28571,-54.28571 29.98117,0 54.28572,24.30454 54.28572,54.28571 z" />
    <path
       transform="matrix(-0.36439714,0,0,0.33808135,771.42533,585.94441)"
       sodipodi:type="arc"
       style="fill:#ff0000;stroke:#ff0000;stroke-width:8.54718624999999932;stroke-linecap:butt;stroke-linejoin:miter;stroke-opacity:1"
       id="path2985-0-13-7-2-4-2-3-4-60-0"
       sodipodi:cx="337.14285"
       sodipodi:cy="483.79074"
       sodipodi:rx="54.285713"
       sodipodi:ry="54.285713"
       d="m 391.42857,483.79074 c 0,29.98117 -24.30455,54.28571 -54.28572,54.28571 -29.98117,0 -54.28571,-24.30454 -54.28571,-54.28571 0,-29.98117 24.30454,-54.28571 54.28571,-54.28571 29.98117,0 54.28572,24.30454 54.28572,54.28571 z" />
    <path
       style="fill:none;stroke:#000000;stroke-width:3;stroke-linecap:butt;stroke-linejoin:miter;stroke-opacity:1"
       d="M 247.99924,41.505801 C -199.22081,55.385904 -343.55564,422.70676 -325.14209,760.36142"
       id="path6671"
       inkscape:connector-curvature="0"
       sodipodi:nodetypes="cc" />
    <path
       style="fill:none;stroke:#000000;stroke-width:3;stroke-linecap:butt;stroke-linejoin:miter;stroke-opacity:1"
       d="m -324.87623,755.20139 c 2.19074,136.52156 143.76094,109.30931 142.89548,-2.8583"
       id="path6673"
       inkscape:connector-curvature="0"
       sodipodi:nodetypes="cc" />
    <path
       transform="matrix(-0.36439714,0,0,0.33808135,391.42532,368.80156)"
       sodipodi:type="arc"
       style="fill:#ff0000;stroke:#ff0000;stroke-width:8.54718624999999932;stroke-linecap:butt;stroke-linejoin:miter;stroke-opacity:1"
       id="path2985-0-13-7-2-4-2-3-4-60-0-6"
       sodipodi:cx="337.14285"
       sodipodi:cy="483.79074"
       sodipodi:rx="54.285713"
       sodipodi:ry="54.285713"
       d="m 391.42857,483.79074 c 0,29.98117 -24.30455,54.28571 -54.28572,54.28571 -29.98117,0 -54.28571,-24.30454 -54.28571,-54.28571 0,-29.98117 24.30454,-54.28571 54.28571,-54.28571 29.98117,0 54.28572,24.30454 54.28572,54.28571 z" />
    <path
       style="fill:none;stroke:#000000;stroke-width:3;stroke-linecap:butt;stroke-linejoin:miter;stroke-opacity:1"
       d="m -180,758.07647 c -9.18429,-494.34903 242.733086,-495.19361 302.85714,-500"
       id="path6697"
       inkscape:connector-curvature="0"
       sodipodi:nodetypes="cc" />
    <path
       style="fill:none;stroke:#000000;stroke-width:3;stroke-linecap:butt;stroke-linejoin:miter;stroke-opacity:1"
       d="M 268.57143,635.21932 C 119.54792,667.7994 282.29148,248.22299 117.14286,258.07647"
       id="path6699"
       inkscape:connector-curvature="0"
       sodipodi:nodetypes="cc" />
    <path
       style="fill:none;stroke:#000000;stroke-width:3;stroke-linecap:butt;stroke-linejoin:miter;stroke-opacity:1"
       d="M 265.14286,636.40267 C 414.16637,668.98275 251.42281,249.40634 416.57143,259.25982"
       id="path6699-7"
       inkscape:connector-curvature="0"
       sodipodi:nodetypes="cc" />
    <path
       style="fill:none;stroke:#000000;stroke-width:3;stroke-linecap:butt;stroke-linejoin:miter;stroke-opacity:1"
       d="m 414.28571,258.07647 c 176.42444,68.9457 52.53402,106.63508 57.14286,205.71428"
       id="path6737"
       inkscape:connector-curvature="0"
       sodipodi:nodetypes="cc" />
    <path
       style="fill:none;stroke:#000000;stroke-width:3;stroke-linecap:butt;stroke-linejoin:miter;stroke-opacity:1"
       d="M 471.42858,449.50504 C 444.03112,535.88534 579.7734,898.35519 651.42857,846.6479"
       id="path6739"
       inkscape:connector-curvature="0"
       sodipodi:nodetypes="cc" />
    <flowRoot
       xml:space="preserve"
       id="flowRoot6743"
       style="font-size:40px;font-style:normal;font-weight:normal;line-height:125%;letter-spacing:0px;word-spacing:0px;fill:#000000;fill-opacity:1;stroke:none;font-family:Sans;stroke-width:3"
       transform="translate(554.28571,-122.85714)"><flowRegion
         id="flowRegion6745"><rect
           id="rect6747"
           width="405.71429"
           height="188.57143"
           x="-957.14288"
           y="863.79077"
           style="stroke-width:3" /></flowRegion><flowPara
         id="flowPara6749">...</flowPara></flowRoot>    <flowRoot
       xml:space="preserve"
       id="flowRoot6743-2"
       style="font-size:40px;font-style:normal;font-weight:normal;line-height:125%;letter-spacing:0px;word-spacing:0px;fill:#000000;fill-opacity:1;stroke:none;font-family:Sans;stroke-width:3"
       transform="translate(807.79827,-120.23714)"><flowRegion
         id="flowRegion6745-4"><rect
           id="rect6747-2"
           width="405.71429"
           height="188.57143"
           x="-957.14288"
           y="863.79077"
           style="stroke-width:3" /></flowRegion><flowPara
         id="flowPara6749-1">...</flowPara></flowRoot>    <flowRoot
       xml:space="preserve"
       id="flowRoot6743-4"
       style="font-size:40px;font-style:normal;font-weight:normal;line-height:125%;letter-spacing:0px;word-spacing:0px;fill:#000000;fill-opacity:1;stroke:none;font-family:Sans;stroke-width:3"
       transform="translate(805.22684,-359.37999)"><flowRegion
         id="flowRegion6745-3"><rect
           id="rect6747-28"
           width="405.71429"
           height="188.57143"
           x="-957.14288"
           y="863.79077"
           style="stroke-width:3" /></flowRegion><flowPara
         id="flowPara6749-5">...</flowPara></flowRoot>    <flowRoot
       xml:space="preserve"
       id="flowRoot6743-46"
       style="font-size:40px;font-style:normal;font-weight:normal;line-height:125%;letter-spacing:0px;word-spacing:0px;fill:#000000;fill-opacity:1;stroke:none;font-family:Sans;stroke-width:3"
       transform="translate(940.08398,-353.09428)"><flowRegion
         id="flowRegion6745-7"><rect
           id="rect6747-0"
           width="405.71429"
           height="188.57143"
           x="-957.14288"
           y="863.79077"
           style="stroke-width:3" /></flowRegion><flowPara
         id="flowPara6749-2">...</flowPara></flowRoot>    <flowRoot
       xml:space="preserve"
       id="flowRoot6743-3"
       style="font-size:40px;font-style:normal;font-weight:normal;line-height:125%;letter-spacing:0px;word-spacing:0px;fill:#000000;fill-opacity:1;stroke:none;font-family:Sans;stroke-width:3"
       transform="translate(1072.3697,-351.66571)"><flowRegion
         id="flowRegion6745-78"><rect
           id="rect6747-5"
           width="405.71429"
           height="188.57143"
           x="-957.14288"
           y="863.79077"
           style="stroke-width:3" /></flowRegion><flowPara
         id="flowPara6749-8">...</flowPara></flowRoot>    <flowRoot
       xml:space="preserve"
       id="flowRoot6743-0"
       style="font-size:40px;font-style:normal;font-weight:normal;line-height:125%;letter-spacing:0px;word-spacing:0px;fill:#000000;fill-opacity:1;stroke:none;font-family:Sans;stroke-width:3"
       transform="translate(1332.3697,-345.95142)"><flowRegion
         id="flowRegion6745-40"><rect
           id="rect6747-9"
           width="405.71429"
           height="188.57143"
           x="-957.14288"
           y="863.79077"
           style="stroke-width:3" /></flowRegion><flowPara
         id="flowPara6749-28">...</flowPara></flowRoot>    <flowRoot
       xml:space="preserve"
       id="flowRoot6743-1"
       style="font-size:40px;font-style:normal;font-weight:normal;line-height:125%;letter-spacing:0px;word-spacing:0px;fill:#000000;fill-opacity:1;stroke:none;font-family:Sans;stroke-width:3"
       transform="translate(1323.7983,-148.80856)"><flowRegion
         id="flowRegion6745-6"><rect
           id="rect6747-1"
           width="405.71429"
           height="188.57143"
           x="-957.14288"
           y="863.79077"
           style="stroke-width:3" /></flowRegion><flowPara
         id="flowPara6749-86">...</flowPara></flowRoot>    <flowRoot
       xml:space="preserve"
       id="flowRoot6743-8"
       style="font-size:40px;font-style:normal;font-weight:normal;line-height:125%;letter-spacing:0px;word-spacing:0px;fill:#000000;fill-opacity:1;stroke:none;font-family:Sans;stroke-width:3"
       transform="translate(1458.084,-148.80857)"><flowRegion
         id="flowRegion6745-2"><rect
           id="rect6747-02"
           width="405.71429"
           height="188.57143"
           x="-957.14288"
           y="863.79077"
           style="stroke-width:3" /></flowRegion><flowPara
         id="flowPara6749-57">...</flowPara></flowRoot>    <flowRoot
       xml:space="preserve"
       id="flowRoot6743-7"
       style="font-size:40px;font-style:normal;font-weight:normal;line-height:125%;letter-spacing:0px;word-spacing:0px;fill:#000000;fill-opacity:1;stroke:none;font-family:Sans;stroke-width:3"
       transform="translate(1583.7983,-351.66571)"><flowRegion
         id="flowRegion6745-8"><rect
           id="rect6747-7"
           width="405.71429"
           height="188.57143"
           x="-957.14288"
           y="863.79077"
           style="stroke-width:3" /></flowRegion><flowPara
         id="flowPara6749-4">...</flowPara></flowRoot>    <flowRoot
       xml:space="preserve"
       id="flowRoot6743-43"
       style="font-size:40px;font-style:normal;font-weight:normal;line-height:125%;letter-spacing:0px;word-spacing:0px;fill:#000000;fill-opacity:1;stroke:none;font-family:Sans;stroke-width:3"
       transform="translate(1720.9412,-357.38)"><flowRegion
         id="flowRegion6745-36"><rect
           id="rect6747-56"
           width="405.71429"
           height="188.57143"
           x="-957.14288"
           y="863.79077"
           style="stroke-width:3" /></flowRegion><flowPara
         id="flowPara6749-3">...</flowPara></flowRoot>    <path
       style="fill:#f9f9f9;fill-opacity:1;stroke:none;stroke-width:3"
       d="m 77.427594,621.85715 c 0.8686,-4.71429 2.368619,-16.92857 3.333376,-27.14286 2.851537,-30.19043 12.322269,-81.87403 21.65204,-118.15931 45.07981,-175.32422 141.18026,-302.46271 281.89447,-372.93934 l 29.28572,-14.667734 0,35.692894 0,35.6929 73.924,0.76173 73.92397,0.76172 -138.92397,73.32165 c -122.08611,64.4349 -139.47071,72.83248 -143.43469,69.28571 -6.58912,-5.89561 -21.66512,-5.00298 -28.34646,1.67835 -6.25265,6.25266 -7.40157,17.22295 -2.71989,25.97074 2.538,4.74231 -5.18325,18.68478 -50.66003,91.47818 -44.93332,71.92348 -55.15603,86.51051 -62.8927,89.74308 -10.91305,4.55977 -14.74164,15.36949 -9.9447,28.07803 3.03285,8.03494 1.83089,10.79143 -20.0252,45.92472 -27.051329,43.48451 -29.229579,46.26262 -27.065936,34.51954 z"
       id="path6892"
       inkscape:connector-curvature="0"
       transform="translate(-398.5932,2.7907535)" />
    <path
       style="fill:#f9f9f9;fill-opacity:1;stroke:none;stroke-width:3"
       d="m 598.51545,379.6389 c -3.77094,-81.45356 -22.43271,-117.89954 -64.47758,-125.92323 -12.51181,-2.38771 -58.11973,2.78887 -85.7221,9.72961 -47.77127,12.01231 -101.01583,45.83404 -131.70417,83.66043 l -15.55303,19.17064 -9.23381,-14.9702 c -5.07859,-8.23361 -8.43933,-16.25569 -7.4683,-17.82684 0.97102,-1.57116 2.48224,-7.16228 3.35826,-12.42471 1.56529,-9.40303 4.05693,-10.86943 144.4499,-85.01278 l 142.85715,-75.44471 43.57143,-0.0843 43.57142,-0.0843 0,69.3736 0,69.37361 -8.44248,3.18668 c -10.11326,3.81733 -13.90429,15.16783 -9.2152,27.59064 3.02111,8.00386 1.78168,10.80816 -20.57994,46.56359 l -23.79469,38.04681 -1.61686,-34.92461 0,0 z"
       id="path6894"
       inkscape:connector-curvature="0"
       transform="translate(-398.5932,2.7907535)" />
    <path
       style="fill:#f9f9f9;fill-opacity:1;stroke:none;stroke-width:3"
       d="m 189.33059,595.42837 c -15.4399,-24.74989 -27.89004,-46.28551 -27.66697,-47.85694 0.22307,-1.57142 1.22841,-7.12135 2.23408,-12.33316 1.51346,-7.84334 0.48166,-10.88183 -5.98849,-17.63521 l -7.81698,-8.15917 52.46477,-84.38857 c 35.82292,-57.62049 54.05077,-84.42635 57.46477,-84.50766 4.55631,-0.10852 4.99782,3.87407 4.97547,44.88092 l -0.0246,45 -11.49786,32.56372 c -12.70769,35.99015 -26.42968,99.8129 -31.388,145.98961 -1.77066,16.49004 -3.54885,30.31138 -3.95154,30.71407 -0.4027,0.40271 -13.36482,-19.51773 -28.80473,-44.26761 l 5e-5,0 z"
       id="path6896"
       inkscape:connector-curvature="0"
       transform="translate(-398.5932,2.7907535)" />
    <path
       style="fill:#f9f9f9;fill-opacity:1;stroke:none;stroke-width:3"
       d="m 592.30748,152.22076 c 1.49286,-1.37145 14.42649,-8.47974 28.74141,-15.7962 22.23751,-11.36577 27.12559,-12.88503 33.57143,-10.43433 6.62014,2.51697 7.5443,4.45199 7.5443,15.7962 l 0,12.92786 -36.28571,0 c -20.83165,0 -35.1297,-1.06199 -33.57143,-2.49353 z"
       id="path6900"
       inkscape:connector-curvature="0"
       transform="translate(-398.5932,2.7907535)" />
    <path
       style="fill:#f9f9f9;fill-opacity:1;stroke:none;stroke-width:3"
       d="m 667.9012,141.14286 c 0.0192,-11.67323 1.02028,-14.03432 7.15752,-16.88096 6.32671,-2.93452 10.53296,-1.53511 37.12056,12.3499 16.49194,8.61269 29.98534,16.20912 29.98534,16.88096 0,0.67184 -16.71428,1.22153 -37.14285,1.22153 l -37.14286,0 0.0223,-13.57143 0,0 z"
       id="path6904"
       inkscape:connector-curvature="0"
       transform="translate(-398.5932,2.7907535)" />
    <path
       style="fill:#f9f9f9;fill-opacity:1;stroke:none;stroke-width:3"
       d="m 884.23992,572.86898 c -0.81779,-1.3422 -4.12303,-14.65469 -7.34498,-29.58326 -7.43434,-34.4462 -11.17478,-80 -6.56883,-80 2.02883,0 3.28993,-5.68514 3.32735,-15 0.0635,-15.81541 6.46973,-35.87216 24.26378,-75.96596 13.95116,-31.43498 15.25153,-42.20457 7.12333,-58.9952 -8.00849,-16.54333 -27.47695,-31.58539 -61.53923,-47.54752 -28.61605,-13.40993 -42.33248,-14.68127 -62.43855,-5.78728 -30.62084,13.54522 -44.86278,49.25906 -49.72934,124.70393 l -2.02597,31.40797 -24.78606,-39.8527 c -19.1731,-30.82781 -24.18748,-40.97114 -22.14285,-44.79157 5.02179,-9.38331 2.87829,-18.89446 -5.92823,-26.30466 l -8.57143,-7.21238 0,-68.75589 0,-68.75588 44.64444,0 44.64444,0 136.06984,71.7391 c 74.83842,39.4565 136.36887,72.00557 136.73447,72.33126 0.3655,0.32569 -0.8806,4.68596 -2.7693,9.68947 -2.6593,7.0454 -2.6677,11.12699 -0.037,18.0961 3.3162,8.78558 2.1342,11.01945 -49.88533,94.28571 -49.39371,79.06307 -53.87015,85.28693 -61.34173,85.28693 -15.45253,0 -24.28927,17.11926 -16.42339,31.8168 2.49085,4.65417 1.48658,8.15317 -5.36177,18.68114 -4.63467,7.12486 -9.09577,11.85612 -9.91356,10.51389 l 0,0 z"
       id="path6906"
       inkscape:connector-curvature="0"
       transform="translate(-398.5932,2.7907535)" />
    <path
       style="fill:none;stroke:#000000;stroke-width:3;stroke-linecap:butt;stroke-linejoin:miter;stroke-opacity:1"
       d="m 1051.4286,848.41671 c 182.7566,-73.24922 -39.531,-144.93658 -57.14289,-325.71428"
       id="path6918"
       inkscape:connector-curvature="0"
       transform="translate(-398.5932,2.7907535)"
       sodipodi:nodetypes="cc" />
    <path
       style="fill:none;stroke:#000000;stroke-width:3;stroke-linecap:butt;stroke-linejoin:miter;stroke-opacity:1"
       d="m 1131.4286,314.131 c 6.2757,98.68815 -134.9871,113.06861 -134.28574,208.57143"
       id="path6920"
       inkscape:connector-curvature="0"
       transform="translate(-398.5932,2.7907535)"
       sodipodi:nodetypes="cc" />
    <path
       style="fill:none;stroke:#000000;stroke-width:3;stroke-linecap:butt;stroke-linejoin:miter;stroke-opacity:1"
       d="M 645.71429,36.988142 C 954.98221,38.349224 1145.7837,228.49558 1128.5714,316.98814"
       id="path6922"
       inkscape:connector-curvature="0"
       transform="translate(-398.5932,2.7907535)"
       sodipodi:nodetypes="cc" />
    <path
       style="fill:#f9f9f9;fill-opacity:1;stroke:none;stroke-width:3"
       d="m 416.45034,121.75561 0,-32.958676 12.68092,-5.435677 C 501.38225,52.390865 634.53407,33.860553 717.87891,43.17717 785.7562,50.76476 862.18834,70.684971 915.73605,94.743885 l 20.71429,9.306905 0,25.33175 0,25.33175 -88.96077,0 -88.96077,0 -36.75352,-19.0994 c -35.31744,-18.35312 -36.75351,-19.45219 -36.75351,-28.1286 0,-11.618402 -8.7451,-19.629142 -21.42857,-19.629142 -13.39756,0 -21.42858,7.937571 -21.42858,21.179252 l 0,10.57933 -33.95264,17.54928 -33.95264,17.54928 -78.9045,0 -78.9045,0 0,-32.95868 z"
       id="path6924"
       inkscape:connector-curvature="0"
       transform="translate(-398.5932,2.7907535)" />
    <path
       style="fill:#f9f9f9;fill-opacity:1;stroke:none;stroke-width:3"
       d="m 1078.8239,365.64796 c -12.2908,-20.07581 -15.5643,-27.64105 -13.5714,-31.36482 7.4243,-13.87246 -2.3534,-29.77233 -19.3703,-31.49875 -5.0268,-0.50998 -68.83747,-32.42724 -141.80154,-70.92724 l -132.66194,-70 85.37295,-0.75618 85.37295,-0.75618 0,-25.67239 c 0,-14.11982 0.99542,-25.67239 2.21205,-25.67239 4.36796,0 46.87691,25.51943 68.78813,41.29566 108.4,78.0486 144.8954,170.26675 91.407,230.97128 l -9.55,10.83837 -16.1979,-26.45736 z"
       id="path6926"
       inkscape:connector-curvature="0"
       transform="translate(-398.5932,2.7907535)" />
    <path
       style="fill:#f9f9f9;fill-opacity:1;stroke:none"
       d="m 901.17582,628.28572 c -7.37027,-22.39286 -13.37719,-41.65361 -13.3487,-42.80167 0.0285,-1.14805 4.5913,-9.18377 10.13959,-17.85714 17.24513,-26.95848 18.48363,-24.09054 18.48363,42.80167 0,32.21428 -0.42166,58.57143 -0.93701,58.57143 -0.51536,0 -6.96723,-18.32143 -14.33751,-40.71429 z"
       id="path6930"
       inkscape:connector-curvature="0"
       transform="translate(-398.5932,2.7907535)" />
  </g>
</svg>
